<?xml version="1.0" encoding="UTF-8"?>
<!DOCTYPE svg PUBLIC "-//W3C//DTD SVG 1.1//EN" "http://www.w3.org/Graphics/SVG/1.1/DTD/svg11.dtd">
<!-- Creator: CorelDRAW X8 -->
<svg xmlns="http://www.w3.org/2000/svg" xml:space="preserve" width="194.903mm" height="139.76mm" version="1.1" style="shape-rendering:geometricPrecision; text-rendering:geometricPrecision; image-rendering:optimizeQuality; fill-rule:evenodd; clip-rule:evenodd"
viewBox="0 0 19322 13855"
 xmlns:xlink="http://www.w3.org/1999/xlink">
 <defs>
  <style type="text/css">
   <![CDATA[
    .fil0 {fill:#FEFEFE}
   ]]>
  </style>
 </defs>
 <g id="Camada_x0020_1">
  <metadata id="CorelCorpID_0Corel-Layer"/>
  <path class="fil0" d="M10048 6981c251,-63 126,-63 63,-126l-63 126z"/>
  <polygon class="fil0" points="9109,9173 9046,9110 8984,9235 "/>
  <g id="_751764160">
   <path class="fil0" d="M2262 8294c-283,-2262 1320,-3958 3299,-4241 2168,-377 3958,1319 4241,3204 283,2262 -1319,4148 -3299,4336 -2262,283 -4052,-1414 -4241,-3299zm9425 -3110l-188 377 0 -283 -377 -754c283,189 565,283 565,660zm3016 -3582c1508,-377 2734,660 3016,1885 377,1508 -565,2828 -1885,3111 -3298,848 -4712,-4147 -1131,-4996zm-14703 5467l0 1319c1602,754 471,1508 471,1885 189,283 472,755 566,1037 188,0 565,0 754,95 377,0 283,94 565,282l95 1037 1036 566c1037,-472 1037,-660 1885,565l1226 0c754,-1319 659,-942 1885,-565l1036 -566 95 -754c94,-660 659,-565 1319,-565 189,-377 377,-660 566,-1037 -377,-1414 -754,-1037 565,-1885l0 -1226c-565,-377 -1319,-754 -659,-1413l377 659c848,95 942,0 942,943l754 377c471,-94 283,-189 848,-189 189,189 283,472 472,660l754 0c471,-188 0,-942 1319,-377l754 -377c0,-754 -94,-942 943,-942 94,-283 282,-472 377,-754 -95,-377 -283,-377 -189,-849l566 -377 0 -942c-849,-377 -566,-566 -283,-1225l-471 -754c-472,0 -472,0 -849,-189l-94 -660c-188,-282 -377,-377 -660,-471l-754 189c-282,-189 -377,-283 -471,-566l-942 0c-283,660 -566,660 -1226,283l-754 471 -188 848 -848 95 -283 659c283,1037 377,660 -377,1320l-94 660c-1320,-95 -1320,94 -1414,-1414l-1037 -566c-566,189 -1131,849 -1885,-565 -1131,0 -1225,-189 -1791,754 -754,188 -660,0 -1319,-283l-1037 566c-94,1319 -94,1225 -1414,1413l-565 1037c282,943 754,1131 -566,1791z"/>
   <path class="fil0" d="M5749 5655c1226,-94 2168,754 2357,1791 188,1319 -660,2356 -1791,2450 -2828,377 -3299,-3770 -566,-4241zm-377 -754c-3958,848 -2544,6692 1320,5844 3770,-849 2639,-6692 -1320,-5844z"/>
   <path class="fil0" d="M13761 4430c-377,-1979 2545,-2356 2827,-660 377,1979 -2450,2451 -2827,660zm848 -2262c-942,283 -1791,1225 -1319,2639 282,848 1319,1696 2544,1225 2545,-848 1414,-4618 -1225,-3864z"/>
   <path class="fil0" d="M11499 5278l188 -94c0,-377 -282,-471 -565,-660l377 754z"/>
   <polygon class="fil0" points="11687,5184 11499,5278 11499,5561 "/>
  </g>
 </g>
</svg>
