<?xml version="1.0" encoding="UTF-8"?>
<!DOCTYPE svg PUBLIC "-//W3C//DTD SVG 1.1//EN" "http://www.w3.org/Graphics/SVG/1.1/DTD/svg11.dtd">
<!-- Creator: CorelDRAW X8 -->
<svg xmlns="http://www.w3.org/2000/svg" xml:space="preserve" width="184.806mm" height="248.12mm" version="1.1" style="shape-rendering:geometricPrecision; text-rendering:geometricPrecision; image-rendering:optimizeQuality; fill-rule:evenodd; clip-rule:evenodd"
viewBox="0 0 18069 24259"
 xmlns:xlink="http://www.w3.org/1999/xlink">
 <defs>
  <style type="text/css">
   <![CDATA[
    .fil0 {fill:#FEFEFE}
   ]]>
  </style>
 </defs>
 <g id="Camada_x0020_1">
  <metadata id="CorelCorpID_0Corel-Layer"/>
  <path class="fil0" d="M9539 12149c247,-61 124,-61 62,-123l-62 123z"/>
  <polygon class="fil0" points="8613,14311 8551,14250 8489,14373 "/>
  <g id="_751784416">
   <path class="fil0" d="M12882 7529c0,-335 0,-502 168,-670l0 1673 -168 -1003zm0 0c168,836 -167,1673 -334,2509 -168,335 -335,669 -502,1004 -167,502 -335,669 -502,837 -167,501 -1004,1505 -1506,1338 -334,-335 -334,-4852 -502,-5521 0,-669 168,-1004 0,-1506l-836 8533c-1506,0 -3012,-3346 -3346,-5187l-335 837c-167,-1004 -502,-1506 -502,-2175 168,167 335,167 1004,1171 167,669 335,1004 669,1673l502 -1004c0,-2007 -167,-3011 -1338,-4015 -837,-669 -2175,-1673 -3514,-1840 -836,1673 -1171,6190 3179,7194 167,-335 0,334 167,-335 0,-167 0,-502 0,-669 335,669 335,1004 502,1840 168,502 335,1004 502,1506l-1004 -837c-1338,-1003 -3011,-836 -4517,-836 502,3179 2342,4015 5689,3513l-2510 -1840c669,167 1171,335 1673,669 335,0 669,335 837,335 836,334 -168,-168 501,0 502,836 1004,1004 1506,1673 167,1171 -167,3011 -502,4015 -502,2175 -836,1840 -1505,3012 1338,-335 2509,-502 3011,836 837,-1004 669,-1506 3011,-836 -334,-502 -669,-837 -1003,-1506 -837,-1506 -1171,-4183 -1171,-5856 -168,-2677 2342,-2175 2676,-6859 335,502 168,502 335,669 1338,-335 2342,-1171 2677,-2677 502,-2008 -167,-3011 -502,-4517 -3012,334 -5186,4517 -3012,6859 0,-502 0,-836 168,-1171l334 -836z"/>
   <path class="fil0" d="M12213 15392c3514,167 5019,-1338 5521,-4685 -3179,0 -5855,837 -6023,3848 837,-501 1339,-1171 2677,-1338l-167 335c-167,0 -167,0 -167,0l-837 669c-502,334 -837,502 -1004,1171z"/>
   <path class="fil0" d="M9369 0l-335 0c-334,837 -334,335 -1003,1506 -335,669 -670,1171 -670,2007 -167,1841 502,3012 1673,3514 0,-1004 0,-2677 335,-3346 335,836 335,2175 335,3178 836,-334 1673,-2007 1505,-3513 -334,-1840 -1338,-2175 -1840,-3346z"/>
   <path class="fil0" d="M6358 5354l-502 -1506 836 1338c669,-2342 -334,-3178 -2342,-3680 -837,2175 0,3513 2008,3848z"/>
   <path class="fil0" d="M6692 10038c-167,1673 -502,2677 1004,3179l-167 -1840c167,502 167,669 334,1003l335 837c334,-669 669,-1506 334,-2342 -167,-502 -167,-669 -501,-1004 -335,-502 -168,-502 -670,-669l-502 669c0,0 0,167 -167,0 0,0 0,167 0,167z"/>
   <path class="fil0" d="M18069 8867l0 -1506 -502 -1003c-1004,669 -2175,1673 -1673,3680 502,-334 836,-836 1004,-1171l-502 1339c1004,-168 1171,-670 1673,-1339z"/>
   <path class="fil0" d="M11879 3848c167,-502 167,-335 334,-1004l0 1004c1171,-669 1673,-2008 502,-3179 -1840,669 -1840,1841 -836,3179z"/>
   <path class="fil0" d="M0 10373c502,502 837,1004 2008,1171l-168 -669 502 334c0,-1505 -836,-2342 -2342,-2509l0 1673z"/>
   <path class="fil0" d="M11544 11879c502,-1339 167,-1673 -167,-2845 -837,335 -2175,2008 -1004,3179 334,-334 502,-669 669,-1171l-335 1338c335,-167 670,-334 837,-501z"/>
   <path class="fil0" d="M12882 7529l168 1003 0 -1673c-168,168 -168,335 -168,670z"/>
  </g>
 </g>
</svg>
