<?xml version="1.0" encoding="UTF-8"?>
<!DOCTYPE svg PUBLIC "-//W3C//DTD SVG 1.1//EN" "http://www.w3.org/Graphics/SVG/1.1/DTD/svg11.dtd">
<!-- Creator: CorelDRAW X8 -->
<svg xmlns="http://www.w3.org/2000/svg" xml:space="preserve" width="178.662mm" height="178.662mm" version="1.1" style="shape-rendering:geometricPrecision; text-rendering:geometricPrecision; image-rendering:optimizeQuality; fill-rule:evenodd; clip-rule:evenodd"
viewBox="0 0 18514 18514"
 xmlns:xlink="http://www.w3.org/1999/xlink">
 <defs>
  <style type="text/css">
   <![CDATA[
    .fil0 {fill:#FEFEFE}
   ]]>
  </style>
 </defs>
 <g id="Camada_x0020_1">
  <metadata id="CorelCorpID_0Corel-Layer"/>
  <path class="fil0" d="M9250 9604c262,-66 131,-66 65,-131l-65 131z"/>
  <polygon class="fil0" points="8268,11895 8203,11830 8137,11961 "/>
  <g id="_751775328">
   <path class="fil0" d="M8545 10824c854,-570 4557,-285 5412,0 854,284 1139,569 1709,1139 285,0 569,285 854,570l1140 569 0 2279c-2849,285 -7976,2563 -10254,2279l-5412 -3703c-570,-570 -1139,-855 -1139,-1994 1708,-285 4272,2279 5981,2848 1709,0 4272,-569 5412,-1424l0 -1709c-1709,-1139 -2564,0 -3703,-854zm-8545 854l0 1709c1139,570 6551,5127 7975,5127 570,0 9685,-2279 10539,-2563l0 -3703c-3703,-855 -2279,-2564 -7406,-2564 -1424,0 -3702,-285 -3418,1424 0,855 570,855 1709,855 2279,0 1709,0 1994,285 285,1139 -1424,1139 -2563,1424 -1994,570 -1709,854 -5697,-1994 -1424,-854 -1994,-570 -3133,0z"/>
   <path class="fil0" d="M5127 7406c1709,-1140 3133,-1140 4842,0l-285 284c-1139,855 -3418,1140 -4557,-284zm-570 -285c-1139,-1709 -1424,-4273 0,-5127 1424,1709 1140,3418 0,5127zm1994 -1709c285,-2564 1994,-4273 4557,-4557 -284,2848 -1709,4272 -4557,4557zm5127 -5412l-1709 0c-570,570 -1424,570 -1994,1424 -854,570 -1139,855 -1709,1709 -854,-1139 -569,-1994 -1994,-2278 -2278,1708 -1709,4557 -284,6551 -1425,1709 -1709,1139 -1994,2563 1139,-285 1709,-1139 2278,-1994 2279,1140 4558,1994 6836,-285 -569,-1424 -1424,-1139 -2563,-1993 1709,-855 3988,-3134 3133,-5697z"/>
  </g>
 </g>
</svg>
