<?xml version="1.0" encoding="UTF-8"?>
<!DOCTYPE svg PUBLIC "-//W3C//DTD SVG 1.1//EN" "http://www.w3.org/Graphics/SVG/1.1/DTD/svg11.dtd">
<!-- Creator: CorelDRAW X8 -->
<svg xmlns="http://www.w3.org/2000/svg" xml:space="preserve" width="180.568mm" height="165.897mm" version="1.1" style="shape-rendering:geometricPrecision; text-rendering:geometricPrecision; image-rendering:optimizeQuality; fill-rule:evenodd; clip-rule:evenodd"
viewBox="0 0 17647 16214"
 xmlns:xlink="http://www.w3.org/1999/xlink">
 <defs>
  <style type="text/css">
   <![CDATA[
    .fil0 {fill:#FEFEFE}
   ]]>
  </style>
 </defs>
 <g id="Camada_x0020_1">
  <metadata id="CorelCorpID_0Corel-Layer"/>
  <path class="fil0" d="M9327 9924c247,-61 124,-61 62,-123l-62 123z"/>
  <polygon class="fil0" points="8401,12085 8339,12024 8278,12147 "/>
  <g id="_751754912">
   <path class="fil0" d="M0 9596l0 220 662 883 11360 -6728 -110 1434c441,-331 3309,-3089 4081,-3861 221,-110 551,-441 772,-551 221,-331 331,-552 662,-662 110,-221 110,-110 -110,-221l-7170 2206 1103 662c-220,221 -441,331 -662,551l-10588 6067z"/>
   <path class="fil0" d="M12684 10809c552,221 2647,110 3419,110 441,0 1214,111 1434,-331 0,-330 0,-1433 -220,-1654 -331,-221 -2868,-110 -3420,-110 -551,0 -1213,-111 -1434,331 -110,551 0,1433 221,1654z"/>
   <path class="fil0" d="M6177 8934c-331,331 -331,1544 0,1875 110,110 4522,331 4742,-110 111,-331 111,-1214 111,-1544 -221,-442 -993,-331 -1434,-331 -772,0 -2758,-111 -3419,110z"/>
   <path class="fil0" d="M12463 13346c552,331 4743,220 4854,110 220,-331 441,-1544 110,-1875 -331,-220 -4302,-110 -4522,-110 -662,110 -442,1213 -442,1875z"/>
   <path class="fil0" d="M221 13346c110,110 0,110 330,220 221,0 4302,0 4523,-110 110,-551 220,-1765 -221,-1985l-4412 0c-551,110 -441,1434 -220,1875z"/>
   <path class="fil0" d="M12684 8162c221,110 4412,331 4743,-110 110,-442 331,-1655 -221,-1875 -110,0 -4301,0 -4522,110 -331,220 -331,1544 0,1875z"/>
   <path class="fil0" d="M12684 16214l4522 0c441,-442 441,-1434 221,-1986 -552,-110 -4191,-110 -4853,0 -221,662 -221,1544 110,1986z"/>
   <path class="fil0" d="M6177 16214l4632 0c331,-552 221,-1875 110,-1986 -551,-110 -4301,-110 -4853,0 -110,441 -220,1544 111,1986z"/>
   <path class="fil0" d="M331 16214l4522 0c331,-442 441,-1434 110,-1875 -220,-331 -4522,-111 -4522,-111 -551,111 -551,1544 -110,1986z"/>
   <path class="fil0" d="M6177 13456c551,221 4191,221 4742,0 111,-441 331,-1654 -220,-1875l-4412 0c-552,221 -331,1544 -110,1875z"/>
   <path class="fil0" d="M17427 331c220,-110 110,0 220,-331l-330 0 0 110c220,111 220,0 110,221z"/>
  </g>
 </g>
</svg>
