<?xml version="1.0" encoding="UTF-8"?>
<!DOCTYPE svg PUBLIC "-//W3C//DTD SVG 1.1//EN" "http://www.w3.org/Graphics/SVG/1.1/DTD/svg11.dtd">
<!-- Creator: CorelDRAW X8 -->
<svg xmlns="http://www.w3.org/2000/svg" xml:space="preserve" width="172.969mm" height="227.022mm" version="1.1" style="shape-rendering:geometricPrecision; text-rendering:geometricPrecision; image-rendering:optimizeQuality; fill-rule:evenodd; clip-rule:evenodd"
viewBox="0 0 16686 21900"
 xmlns:xlink="http://www.w3.org/1999/xlink">
 <defs>
  <style type="text/css">
   <![CDATA[
    .fil0 {fill:#FEFEFE}
   ]]>
  </style>
 </defs>
 <g id="Camada_x0020_1">
  <metadata id="CorelCorpID_0Corel-Layer"/>
  <g id="_748551856">
   <path class="fil0" d="M12812 21900l745 0c894,-745 1192,-894 1341,-2384 298,-2532 -1043,-9385 -894,-9981 596,-745 1341,-894 1788,-1490 745,-1043 447,-1341 894,-2384l0 -1192c-447,-1042 -298,-1638 -1043,-2681 -745,-1192 -894,-1043 -1937,-1788l-1043 0c-596,447 -1043,596 -1937,1639 -446,894 -744,1788 -893,2830 -298,3129 893,3725 2532,4917 149,1341 -596,4916 -745,6555 -149,1192 -298,2383 -149,3575 149,1490 596,1788 1341,2384z"/>
   <path class="fil0" d="M0 3576l0 3873c447,894 447,1937 2384,2235 -298,2234 -1192,7896 -894,9981 149,1490 298,1490 1341,2235l744 0c1639,-1341 1490,-2980 1192,-5810 -298,-2086 -596,-4321 -894,-6406 2086,-298 2384,-1639 2384,-3874 0,-1639 0,-4618 -1192,-5065 0,1639 447,5363 -596,5363 -1340,149 -149,-4171 -1191,-6108l-298 0c-1043,2086 298,6406 -1192,6108 -1043,-149 -596,-3575 -596,-5363 -894,447 -745,1937 -1192,2831z"/>
  </g>
 </g>
</svg>
