<?xml version="1.0" encoding="UTF-8"?>
<!DOCTYPE svg PUBLIC "-//W3C//DTD SVG 1.1//EN" "http://www.w3.org/Graphics/SVG/1.1/DTD/svg11.dtd">
<!-- Creator: CorelDRAW X8 -->
<svg xmlns="http://www.w3.org/2000/svg" xml:space="preserve" width="191.445mm" height="243.84mm" version="1.1" style="shape-rendering:geometricPrecision; text-rendering:geometricPrecision; image-rendering:optimizeQuality; fill-rule:evenodd; clip-rule:evenodd"
viewBox="0 0 19395 24703"
 xmlns:xlink="http://www.w3.org/1999/xlink">
 <defs>
  <style type="text/css">
   <![CDATA[
    .fil0 {fill:#FEFEFE}
   ]]>
  </style>
 </defs>
 <g id="Camada_x0020_1">
  <metadata id="CorelCorpID_0Corel-Layer"/>
  <path class="fil0" d="M9882 11114c256,-64 128,-64 64,-128l-64 128z"/>
  <polygon class="fil0" points="8922,13354 8858,13290 8794,13418 "/>
  <g id="_751761056">
   <path class="fil0" d="M7994 8489c106,208 92,725 101,1012 -14,467 46,764 44,1171 -3,513 190,594 -97,1022 -409,0 -583,-316 -1035,-768l-381 -398c-108,-129 -393,-524 -630,-442l-187 154c-13,404 126,439 418,784 156,184 418,448 451,572l292 254 127 136c772,833 158,1154 792,2979 33,94 39,119 84,206 98,190 30,120 167,177l0 -292c240,-64 39,-98 390,-98 -4,-151 -37,-200 -38,-252 -2,-136 151,-487 262,-546 98,-52 52,-20 165,-30 78,162 102,344 147,536l-147 0 0 585c132,-139 143,-70 162,-72l228 -74c34,142 -6,70 98,146l124 -42 119 -592 195 0c30,82 21,52 51,96 22,32 95,-23 95,392 217,0 414,-40 488,-244 106,51 191,85 341,97l33 363c-12,137 24,4 -33,173 155,-63 26,23 162,-84l1371 -1696c70,-70 20,-24 77,-69 43,-35 98,-69 144,-100l48 -48c307,-419 1250,-491 1365,-780 95,-239 -125,-442 -331,-547 -281,-142 -428,-38 -741,-38l-195 98c-437,199 -544,413 -791,671 -137,143 -304,370 -525,303 -296,-198 -337,-456 -387,-880 -50,-430 106,-860 165,-1166 26,-261 -62,-214 125,-375l167 -579c28,-86 46,-104 68,-176 194,-640 593,-1694 593,-2330 -159,-106 -112,-141 -341,-194l-31 48 -212 214 -49 30 -600 1739c-63,153 -99,270 -160,425 -197,495 -328,1013 -702,1100 -177,-369 -74,-717 -48,-1071l97 -2388c0,-464 41,-832 -244,-1023 -560,-145 -460,1206 -490,1459l-95 1903c0,287 51,687 -77,945 -65,131 -55,113 -215,127 -50,-215 -85,-727 -97,-975l-293 -1949c-57,-372 -36,-648 -389,-731 -440,57 -246,1041 -195,1132z"/>
   <path class="fil0" d="M8140 15348c-80,147 32,129 134,255l103 190c83,173 103,693 106,921 6,521 8,1278 -48,1756 -50,424 -10,1289 -5,1752 3,227 52,232 52,388 0,156 -49,161 -52,389 -3,296 -39,651 37,927l-23 2735 2839 7 -51 -208c46,-240 -273,-1236 -266,-2144 3,-362 -47,-848 -98,-1170 -159,-1015 -243,-1215 -243,-2290 0,-493 -47,-766 -95,-1172 -25,-220 -52,-1621 63,-1828 15,-26 104,-155 121,-176 128,-158 102,-23 106,-186 57,-169 21,-36 33,-173l-33 -363c-150,-12 -235,-46 -341,-97 -74,204 -271,244 -488,244 0,-415 -73,-360 -95,-392 -30,-44 -21,-14 -51,-96l-195 0 -119 592 -124 42c-104,-76 -64,-4 -98,-146l-228 74c-19,2 -30,-67 -162,72l0 -585 147 0c-45,-192 -69,-374 -147,-536 -113,10 -67,-22 -165,30 -111,59 -264,410 -262,546 1,52 34,101 38,252 -351,0 -150,34 -390,98l0 292z"/>
   <path class="fil0" d="M6401 1754l-25 -244c-44,-70 94,-43 -89,-45 -516,-6 -429,693 -554,763 -393,221 -619,-1114 -744,-1416 -86,-210 -297,-411 -315,-35 -9,219 307,943 201,1172 -258,-173 -542,-945 -877,-1169l-140 104c17,334 566,959 725,1260 -171,-46 -567,-478 -690,-626 -60,-71 -46,-107 -157,-142 -127,-40 -205,-3 -221,89 -12,67 641,801 740,910 329,366 -155,252 -376,223 -293,-39 -337,-94 -465,82 215,322 753,119 1038,375 23,20 568,713 862,599 8,-8 22,-31 25,-23l89 -106c36,-58 52,-109 81,-163 1001,0 192,-803 892,-1608z"/>
   <path class="fil0" d="M8091 1980l113 115c352,204 653,260 860,635 94,170 33,188 294,193 152,-651 -198,-518 -439,-877 308,-205 424,-174 840,-108 231,37 720,159 906,60l29 -146c-307,-205 -536,-130 -829,-215 -198,-57 -35,-72 -312,-78l0 -97c451,-105 1354,-73 1313,-336 -42,-277 -969,43 -1411,43l411 -174c205,-68 760,-175 647,-392 -107,-207 -705,212 -1301,225 9,-397 331,-407 341,-828 -251,6 -176,-12 -399,284 -506,673 -158,253 -804,560 -216,102 -283,144 -405,325 35,149 76,188 146,293 -53,227 -83,283 0,518z"/>
   <path class="fil0" d="M14084 9239c123,17 83,-7 146,60 426,25 330,67 585,238l98 4 58 -32c21,-9 84,-30 106,-38 170,-62 57,-2 198,-95 179,-117 436,-345 763,-358 263,-11 185,135 336,-150 -290,-433 -708,-55 -974,-49 0,-486 156,-607 522,-1085 49,-63 208,-258 230,-311 111,-271 -105,-349 -296,-96l-482 589c-47,47 -124,94 -169,124 8,-346 379,-849 390,-1316 -129,-34 -40,4 -147,-49 -342,229 -340,1039 -584,1218 53,-633 263,-848 49,-1169l-188 154c-7,436 -170,720 -202,1113 -138,-12 -120,92 -326,-308 -139,-269 -52,-239 -308,-374 -5,11 -13,16 -15,33l-82 113c468,885 391,638 280,1256 -28,156 -87,237 61,449l-49 79z"/>
   <path class="fil0" d="M1854 5412l147 26 97 29 292 -16c439,22 558,-26 894,138 79,39 156,110 239,27 127,-127 -122,-363 -204,-405 -101,-53 -431,-58 -588,-95 11,-496 551,-609 1088,-861 210,-99 310,-67 374,-308 -303,-146 -615,189 -1267,341 19,-220 145,-256 484,-540l78 -68c8,-6 19,-16 27,-22 7,-6 19,-15 27,-22 199,-167 308,-251 359,-469 -312,-66 -293,58 -478,204l-436 393c-136,140 -102,177 -353,183l556 -711c125,-167 120,-53 126,-313 -252,6 -207,25 -412,270 -161,191 -481,637 -709,656 -65,-282 -48,-531 -48,-877 -240,6 -242,54 -246,290 -4,192 2,394 2,587 -189,283 -536,570 -536,1023l156 89c217,112 81,36 235,302 45,77 57,69 96,149z"/>
   <path class="fil0" d="M8578 6432c457,-257 283,534 1101,-20 561,-380 607,-232 851,-271 311,-49 138,-480 -354,-356 -265,68 -206,141 -428,159 -93,-396 125,-640 461,-1048 29,-36 35,-48 63,-84 116,-153 -1,-79 165,-134l-40 -92 130 -128c-49,-228 -10,-132 -214,-219 -4,119 48,105 -127,171l-304 402c-344,373 -146,279 -378,304 54,-232 328,-733 335,-974l55 -133 0 -208c-322,7 -241,105 -423,551 -137,334 -139,543 -308,667 97,-416 181,-746 146,-1170 -251,21 -235,76 -322,555 -38,217 -21,178 -83,356 -35,102 -59,256 -82,356 -202,-54 -197,-149 -405,-521 -175,-316 -417,-228 -108,352 273,514 152,209 76,953 -23,218 42,212 47,434l65 33c83,57 38,27 81,65z"/>
   <path class="fil0" d="M15525 12961l51 243c89,127 11,13 75,140 37,73 41,79 90,153 169,0 284,-34 349,-37 103,-5 212,67 295,80 506,76 558,-631 1152,-829 258,-86 137,26 250,-189 -298,-446 -748,109 -877,195 -297,-199 -129,-520 -30,-809 96,-279 211,-578 274,-848l-98 -146c-385,204 -199,444 -548,1011 -58,93 -25,71 -134,110 0,-387 44,-567 52,-926l17 -146c-63,-240 59,-285 -264,-292 -16,192 -36,103 -49,291l-48 1024c-161,-185 -66,-242 -135,-645 -75,-438 -56,-479 -304,-427 0,209 -5,317 30,507 36,194 1,366 31,558 133,839 -700,-629 -787,-136 -21,120 182,246 248,329 106,135 -9,40 137,155 72,57 94,39 150,143 54,101 51,397 73,491z"/>
   <path class="fil0" d="M1805 10086c89,-47 53,-55 147,-98 131,-323 459,-651 828,-682 78,-116 59,-50 98,-195 -312,-425 -684,144 -877,195 -327,-219 -79,-614 91,-1126 0,-1 365,-851 -53,-596 -99,60 -132,267 -249,537 -36,84 -50,140 -81,211 -138,312 -116,258 -244,292 0,-315 132,-1064 0,-1340l-147 16c-245,319 77,1011 -195,1324 0,-135 -56,-1154 -286,-1118 -243,37 37,956 -5,1219 -69,436 -527,-423 -729,-388 -382,65 415,728 485,774 0,322 12,340 77,605 100,409 219,500 556,321 261,138 283,175 584,49z"/>
   <path class="fil0" d="M14815 3557l-292 780c-72,181 -7,141 -146,243 -357,-261 -107,-695 -536,-731 -101,432 316,569 166,1092 -74,262 -367,1043 223,906l244 292c863,0 771,-487 1608,-292l88 -107c-166,-803 -1339,333 -869,-576 147,-284 475,-515 736,-824 6,-7 16,-18 22,-26l169 -221 -104 -140c-409,90 -590,659 -1017,773 78,-332 322,-585 482,-981 52,-131 158,-255 37,-319 -316,-166 -558,920 -811,1105 30,-355 244,-639 244,-1023l-107 -76c-30,149 6,59 -137,125z"/>
   <path class="fil0" d="M17397 6617c174,-208 34,-267 293,-260 203,-491 571,-533 828,-656l0 -195c-201,-97 -285,-108 -487,0 -35,18 -174,112 -201,140 -108,112 -24,134 -238,152 -217,-931 592,-1512 195,-1803 -181,122 -220,335 -312,565 -71,179 -129,487 -321,556 0,-119 -9,-276 -1,-390 14,-186 44,-125 52,-339 13,-354 35,-482 -100,-684 -283,150 -152,155 -224,555 -46,254 -19,545 -19,809 -250,-287 26,-1009 -390,-1120 -108,224 -7,488 -2,927 2,126 46,318 42,340 -45,227 -294,-33 -370,-110 -157,-160 -182,-274 -450,-280 9,387 383,431 539,728 104,199 -3,589 289,1026 220,0 308,-77 467,-32 204,57 24,81 340,67 47,-2 42,-4 70,4z"/>
   <path class="fil0" d="M10694 1852l-29 146c104,295 618,408 709,615 42,95 26,122 64,228 26,74 64,169 97,244 132,312 155,256 259,434l293 -82c356,-75 526,250 860,-432 144,-294 348,-636 693,-666 -18,-80 -47,-205 103,-194 -529,-346 -680,310 -974,389 -282,-206 -157,-797 -79,-1248 26,-150 68,-327 79,-458l-141 -104c-148,102 -117,48 -158,245 -28,136 -26,219 -52,385 -38,239 -90,489 -234,595l-193 -1122c-29,-213 -9,-237 -246,-242 0,705 147,1119 147,1413l-389 -879c-82,-170 -28,-175 -245,-193 0,528 281,852 293,1364 -203,-4 -689,-320 -857,-438z"/>
   <path class="fil0" d="M4122 10427c26,82 -35,16 79,136 54,57 77,72 138,108 151,89 185,48 293,195 -36,133 7,69 -93,150 -210,168 -436,129 -738,140 -214,7 -224,49 -486,50 -296,1 -288,6 -389,196 247,165 794,97 1267,97 -64,239 -125,93 -682,341 0,236 -138,-13 -429,203l-107 115 50 120c381,-7 980,-382 1314,-389 -203,176 -887,405 -974,731 244,117 458,-92 634,-195 151,-88 485,-276 681,-293 0,206 9,154 -47,295 -35,90 -67,176 -116,274 -142,288 17,606 294,-48 273,-645 42,-258 528,-618 73,-79 -88,-27 121,-81 194,-142 316,-156 341,-455 -258,-297 -206,-146 -195,-633 -528,-354 -647,-211 -1044,-466 -88,-57 -62,-31 -139,-107 -61,-61 -7,-17 -66,-77 -57,-59 -27,-28 -66,-56l-202 -34 33 301z"/>
   <path class="fil0" d="M5898 6627c117,61 298,166 393,240 131,102 70,12 126,216 31,114 43,176 66,273l182 8c1,143 -27,150 -82,237 121,92 125,197 230,259 183,106 232,-33 352,-113 209,-54 371,287 723,-252 96,-148 106,-245 201,-383 372,-538 559,-293 587,-632l-98 -48c-582,0 -457,271 -779,487l-73 -74c-248,-289 -95,-725 -43,-1016 78,-434 104,-561 -30,-762 -136,91 -111,43 -159,232l-143 734c-33,192 -16,207 -186,252 -98,-423 -74,-962 -243,-1315l97 -43 -195 -16c-58,98 -108,127 -101,300 8,214 150,654 150,1123l-97 0c-5,-201 -90,-412 -152,-579 -71,-190 -121,-381 -287,-493 -185,227 -34,241 79,701l165 664c-416,88 -571,-463 -926,-293 34,129 -15,58 82,161l161 132z"/>
   <path class="fil0" d="M13646 9502l-98 -14c-118,219 0,909 0,1329 -427,-100 -456,-617 -828,-439 84,316 469,409 577,690 90,235 -32,521 300,1016 226,-5 167,-51 342,-51 207,-1 413,243 692,-85 273,-322 387,-607 964,-741l0 -195c-486,-233 -594,142 -877,292l-121 -173c-130,-382 396,-1215 363,-1481 -12,-99 -9,-51 -47,-109l-98 -4c-188,173 -172,322 -276,565 -85,196 -162,412 -309,520l0 -1323c-63,-67 -23,-43 -146,-60l-92 74c-10,494 -54,511 -54,1260l-97 0c0,-333 -28,-832 -195,-1071z"/>
   <path class="fil0" d="M1805 10086l-46 977c0,251 37,190 -100,290 0,-248 -27,-425 -67,-663 -53,-307 -10,-362 -225,-507 -60,90 -112,113 -90,280 49,390 90,614 90,1085 -146,-13 -125,22 -403,-231 -86,-78 -258,-351 -388,-221 -132,132 445,627 547,695 0,588 196,845 244,1024 241,0 340,-69 506,-22 658,186 454,-143 991,-578 119,-95 29,-30 111,-57l107 -115c291,-216 429,33 429,-203l-252 -141c-406,-90 -444,260 -771,336 -151,-226 -146,-379 -15,-697l151 -433c42,-136 21,-92 73,-220 71,-171 117,-280 34,-453 -314,84 -297,466 -477,838 -102,209 -67,190 -205,283 -70,-146 0,-1029 0,-1364 -73,-61 -23,-9 -97,-1 -94,43 -58,51 -147,98z"/>
   <path class="fil0" d="M17397 6617c-40,86 -62,117 -106,196 -43,79 -51,111 -98,194 -79,136 -147,234 -185,399l-195 0c-4,-173 -138,-661 -195,-779 -474,39 67,593 -49,974 -87,131 -349,623 -288,869 55,221 217,102 369,219 184,142 -18,245 358,276 0,344 -20,103 97,195 -30,-335 -149,-331 112,-442 45,125 1,183 83,310l0 -111c229,-19 389,-147 780,-147 0,216 -4,162 56,244l-24 -256c91,46 107,61 163,121 34,-70 -56,-83 97,-36l104 -66 -39 -250c-146,-30 -273,-100 -406,-100 -151,1 -200,51 -439,51 13,-561 589,-714 1037,-1156 242,-238 203,-480 -319,-75 -114,88 -201,132 -314,221 -131,102 -202,165 -404,182 53,-197 277,-422 391,-584 67,-97 127,-195 194,-293 76,-112 131,-159 146,-341 -249,-53 -188,-43 -544,429 -231,306 -238,466 -479,594 27,-115 388,-808 439,-1023l-49 -75c-259,-7 -119,52 -293,260z"/>
   <path class="fil0" d="M10527 4458l-130 128 40 92c55,138 86,650 171,844 68,153 65,45 114,227 241,0 341,-68 506,-21 240,68 202,132 432,-15 150,-96 441,-439 524,-597 0,-112 -35,-97 49,-97 0,-104 -14,-7 97,-49 81,8 22,24 141,-5 112,-28 -14,8 103,-44 129,-112 -146,-87 149,-97l-52 -146c0,-120 17,5 -49,-49 -498,0 -453,155 -730,341 -162,-108 -152,-78 -151,-341 2,-245 45,-255 109,-432 55,-155 219,-596 237,-760l-293 82c-131,239 -179,614 -390,769 -121,-252 117,-1069 -48,-1413 -162,43 -149,26 -199,191 -80,265 -45,870 -45,1173l-97 0c0,-245 -60,-415 -87,-595 -47,-308 10,-381 -206,-526 -60,90 -112,113 -90,280 59,464 90,600 90,1085 -104,-9 -142,-15 -195,-25z"/>
   <path class="fil0" d="M12574 4921c96,40 105,-51 100,291 -7,431 46,469 46,976l-390 -1218c-111,42 -97,-55 -97,49 -84,0 -49,-15 -49,97 197,0 11,-29 96,291l148 1025c-149,-40 -182,-109 -322,-214 -175,-131 -124,-205 -361,-225 9,400 389,414 532,735 149,333 127,1166 638,824 612,294 515,-293 937,-719 187,-189 107,-100 330,-206 -12,-519 -550,-169 -634,146 -179,-48 -207,-116 -237,-301 -47,-292 277,-1168 140,-1453 -268,29 -145,96 -243,487 -53,207 -98,421 -147,633l-173 -1093c-75,-337 -103,-226 -119,-271 0,-196 18,-21 -98,-97l52 146c-295,10 -20,-15 -149,97z"/>
   <path class="fil0" d="M2439 7016l-267 -59 69 157c75,203 435,259 535,539 90,249 64,556 394,776l218 -122c6,-5 17,-16 26,-24 249,120 420,160 625,-154 122,-187 254,-491 467,-604 221,-118 264,17 272,-314 -592,-138 -476,260 -780,341 -284,-208 -86,-737 22,-1247 53,-247 80,-291 -168,-312 -74,154 -89,377 -139,543 -146,483 -41,424 -251,480 0,-429 -10,-934 -146,-1218 -366,98 -97,379 -97,1267l-272 -801c-56,-166 -27,-158 -216,-173 -84,361 385,1251 82,1189 -26,-5 -170,-90 -190,-106 -62,-52 -5,-2 -70,-77l-43 -54c-4,-6 -15,-18 -22,-27l-49 0z"/>
   <path class="fil0" d="M13743 2145c-150,-11 -121,114 -103,194 418,207 632,182 688,390 -219,0 -356,8 -556,-30 -281,-54 -301,12 -516,30 25,302 108,159 419,214 223,39 409,29 653,29l0 49c-363,0 -689,69 -926,195l105 140c283,-62 606,-91 967,-91 -67,251 -652,586 -339,627 162,21 335,-317 485,-392 245,-123 165,11 195,57 143,-66 107,24 137,-125l107 76c50,-121 -82,-97 97,-97 10,-7 26,-28 31,-18 10,18 219,-78 359,-226 -127,-545 285,-486 -182,-939 -64,-62 -104,-87 -157,-135 -38,-36 -27,-21 -71,-75 -188,-233 -129,-416 -321,-556 -406,297 74,596 98,877 -533,124 -730,-98 -1170,-194z"/>
   <path class="fil0" d="M4144 12961c0,462 72,328 244,584 -290,434 -1004,-146 -1413,-146 6,249 -94,161 384,348 434,169 403,129 444,286 -603,0 -727,-160 -1120,48 160,240 139,108 468,166 212,37 372,29 604,29l0 49c-304,0 -621,86 -877,146l0 146c163,38 247,27 476,-10 184,-30 293,-38 547,-38 -31,369 -359,263 -390,633 253,-21 472,-271 585,-438 253,0 877,-101 877,-293 0,-131 -24,-134 -49,-243 71,-106 146,-163 146,-342 0,-192 20,-17 -60,-134 0,-1 -105,-138 -105,-139 -77,-85 -165,-123 -263,-225 -224,-231 -216,-442 -303,-622 -110,29 -195,47 -195,195z"/>
   <path class="fil0" d="M5168 4093c0,473 170,317 243,633 -326,173 -360,99 -822,-55l-542 -188 -88 107c143,218 133,162 409,254 165,54 374,157 459,272 -105,50 -730,0 -926,0 -187,0 -18,-15 -146,49 14,130 0,142 110,181l913 14c-114,155 34,71 -193,99l-495 89c-228,49 -68,-62 -189,104 83,114 55,117 291,100 424,-30 1062,-247 648,157 -56,55 -485,400 -214,412 21,1 399,-255 444,-425 382,0 677,-112 926,-244 0,-165 -32,-238 -18,-316 84,-474 364,-172 -300,-827 -92,-91 -154,-158 -199,-289 -73,-212 7,-196 -165,-322 -76,51 -146,65 -146,195z"/>
   <path class="fil0" d="M17105 9160c-8,123 -87,-34 37,155 69,106 63,11 109,186 -184,251 -351,126 -594,59 -181,-50 -147,-49 -282,-108 -100,-44 -36,-15 -147,-48 -111,-34 -418,-202 -386,40 27,202 619,189 825,496 -405,0 -949,-71 -1072,97 53,72 -13,116 437,147 175,12 405,-1 586,-1l0 49c-133,0 -358,78 -492,93 -260,29 -330,-40 -336,248 298,0 829,-141 1023,-49 -54,201 -220,296 -370,439l-17 146 143 0c101,-151 408,-414 487,-438 221,0 379,8 497,-98l108 -66c13,-7 27,-16 40,-24 14,-8 30,-19 42,-27 13,-7 30,-18 44,-29 83,13 69,102 72,-81 0,-1 -31,-139 -23,-207 20,-169 259,-302 -51,-587 -383,-350 -420,-465 -485,-524 -82,-127 -38,-185 -83,-310 -261,111 -142,107 -112,442z"/>
   <path class="fil0" d="M13110 14179l0 49 -57 -41 57 -8zm48 -49l-48 49 48 -49zm49 -49l-49 49 49 -49zm-633 -536l-58 584c-159,114 -408,333 -429,586 128,176 102,21 190,199 54,109 15,200 122,268 152,97 495,39 694,85 193,45 452,334 457,35 3,-206 -311,-295 -538,-295 65,-279 229,-283 467,-361 200,-66 416,-179 605,-224 -37,-441 -225,-14 -877,0 103,-154 329,-260 499,-378 206,-142 74,11 135,-158l140 98 0 -195 -187 -101c-11,11 -24,12 -28,27 0,0 -411,327 -559,366l227 -260c109,-126 110,-107 114,-276 -241,6 -199,20 -322,165 -127,150 90,-85 -45,53 -590,599 -412,226 -412,-266l-147 0 -48 48z"/>
   <path class="fil0" d="M6376 1510l25 244c126,196 244,208 274,490 37,338 17,381 149,631 160,-4 200,-41 277,-27 154,27 35,57 259,75 221,-148 207,-264 377,-451 328,-362 269,-137 467,-377l-113 -115c-144,-50 -213,-19 -304,54 -121,96 -77,151 -232,207 -245,-510 407,-1186 98,-1413 -113,83 -197,422 -274,653 -16,49 -16,67 -36,110 -60,131 -44,73 -80,114l0 -1120 -146 0 -98 1072c0,-218 -81,-742 -146,-877 -214,77 -111,-1 -98,438 8,256 49,335 49,634 -255,-69 -159,-171 -448,-342z"/>
   <path class="fil0" d="M11940 11207l0 48 -57 -40 57 -8zm0 0c14,-617 259,-698 -48,-780 -66,282 -178,595 -244,877 -185,-49 -288,-327 -341,-521 -187,161 -99,114 -125,375l70 -56c40,152 131,267 135,346 8,143 -231,698 36,811 96,41 100,-1 203,42 161,65 124,295 674,-52 233,-147 274,-117 615,-117l-136 -303c-311,18 -197,102 -498,109 0,-587 519,-693 634,-1121 -156,-75 -95,-96 -222,18 -88,77 -87,118 -179,214 -127,132 -234,255 -379,353 14,-170 112,-334 180,-503 36,-89 62,-153 100,-243 70,-171 94,-108 13,-278 -295,79 -306,620 -488,829z"/>
   <path class="fil0" d="M5460 11954c-209,54 -48,2 -121,81 9,10 24,11 27,31 45,258 -18,-55 86,173 5,10 12,22 16,32 5,10 12,22 17,32l170 268c-36,154 -121,488 -73,656 53,184 38,138 214,177 354,78 259,309 785,-54 225,-155 210,-146 584,-146 105,-495 -527,-171 -633,-146 0,-383 -30,-257 230,-598 124,-162 238,-306 335,-474l-127 -136c-124,162 -410,507 -584,623l292 -877c-89,-44 -61,-37 -195,-48 -161,337 -201,667 -341,828 25,-293 98,-395 98,-780 -274,23 -172,92 -234,352 -49,209 -108,276 -108,525 -230,-61 -77,-99 -438,-519z"/>
   <path class="fil0" d="M7068 9014l0 49 -57 -41 57 -8zm1027 487c-9,-287 5,-804 -101,-1012l0 281c-279,65 -455,363 -780,439 90,-170 162,-247 280,-402 355,-469 254,-724 -115,-212l-311 419c14,-170 20,-121 146,-390 78,-165 145,-188 49,-390 -153,103 -424,602 -439,780l-146 0c-93,-401 -53,-432 -195,-536 -169,124 -92,79 -55,296 20,114 63,294 50,377 -16,96 -103,207 -143,299 -67,151 -47,182 -47,392 336,161 149,-67 390,293 760,0 9,-98 1169,-98 -49,-591 -946,18 -548,-497l743 -623 -2 441c19,165 -2,74 55,143z"/>
   <path class="fil0" d="M6240 14276c-113,-235 -36,-432 -244,-584 -138,165 59,556 49,633 -72,136 -244,491 -244,682 0,109 197,119 271,168 90,58 122,222 216,222 306,0 447,-146 731,-146 222,0 216,83 390,0 -48,-178 -51,-102 -146,-244l-487 0c4,-197 29,-259 311,-468 825,-610 510,-654 184,-401 -158,123 -277,233 -495,284 44,-165 27,-84 125,-215 66,-86 88,-111 148,-194 60,-83 82,-117 138,-202 99,-153 71,-30 76,-266 -339,29 -438,552 -682,731 33,-142 454,-841 167,-763 -154,42 -236,581 -508,763z"/>
   <path class="fil0" d="M17787 10427c-14,11 -31,22 -44,29 -12,8 -28,19 -42,27 -13,8 -27,17 -40,24l-108 66c180,0 50,4 95,141 6,16 30,144 34,163 44,193 54,113 -4,265 -88,229 -183,350 -183,649 100,49 183,46 268,122 409,363 83,240 685,100 418,-97 684,140 642,-106 -50,-285 -597,-165 -621,-164 8,-333 176,-356 353,-525 394,-374 419,-148 427,-499 -245,21 -56,-32 -210,82 -164,121 -375,305 -570,357 80,-340 660,-759 425,-859 -207,-87 -428,626 -668,713 115,-218 292,-466 292,-780l-146 0c-43,186 -286,668 -439,780 -83,-174 -111,-363 -146,-585z"/>
   <path class="fil0" d="M6824 4911l195 16c432,-29 -85,-103 975,-103 -34,-405 -331,-251 -634,-244 44,-532 724,-584 829,-974 -105,-50 -69,-85 -204,-14 -115,61 -351,340 -625,403 86,-323 478,-473 487,-877 -252,21 -224,135 -360,322 -69,96 -75,86 -147,194 -84,127 -65,135 -175,215 34,-144 100,-258 166,-419 75,-185 170,-218 78,-409 -198,132 -297,405 -404,619 -83,166 -38,145 -229,161 0,-232 -55,-352 -98,-536 -348,93 -3,300 -64,665 -50,299 -180,59 -180,748 175,3 131,-34 234,58 144,129 -41,58 156,175z"/>
   <path class="fil0" d="M13981 13789l0 195c134,86 173,59 257,139 209,198 77,290 658,88 210,-73 291,-20 479,1 208,23 198,-143 77,-229 -103,-73 -359,-48 -539,-48 7,-342 265,-401 451,-572 113,-104 59,-108 212,-159l-51 -243c-163,151 -386,337 -612,390 43,-162 131,-215 273,-409 226,-312 209,-254 214,-469 -191,16 -161,23 -371,312 -108,149 -181,324 -311,419 33,-142 454,-841 167,-763 -154,42 -236,581 -508,763 -67,-287 -104,-482 -244,-584 -137,286 42,370 49,682 -108,161 -167,237 -201,487z"/>
   <path class="fil0" d="M5460 7504l15 14c-1,-1 -20,-10 -15,-14zm-49 -98l49 0 -41 57 -8 -57zm-48 -97l48 97 -48 -97zm0 0c-8,-9 -21,-33 -24,-26l-183 -258c-71,-82 -388,-240 -105,205 47,75 62,115 100,192 72,144 126,216 163,374 -276,-23 -371,-224 -634,-98 178,266 385,159 600,376 207,208 44,275 472,502l98 -147c143,0 261,7 341,-48 158,-107 187,-407 242,-538l150 -242c55,-87 83,-94 82,-237l-182 -8c-205,142 -179,177 -292,391l-188 -154c-7,-280 -50,-731 -105,-966 -299,24 -146,-56 -146,779l-97 0c-45,-191 -94,-261 -153,-432 -73,-212 -30,-326 -286,-347 0,451 139,328 147,682z"/>
   <path class="fil0" d="M1854 5412c-115,222 -232,659 -487,727 -27,-115 -30,-144 -58,-283 -35,-168 -16,-164 -137,-253 -229,169 57,339 -6,673 -53,282 -189,171 -189,692 78,37 135,41 205,87 76,51 91,93 185,156l-49 89 147 -16c87,-27 244,-48 341,-72 156,-40 263,-70 435,-98l-69 -157 267 59c-3,-7 -20,-112 -49,-146 -214,0 -1009,186 68,-614 155,-114 255,-137 273,-360 -331,27 -461,353 -828,438l487 -883 -292 16 96 44c-34,127 -401,620 -486,677 38,-143 87,-164 153,-334 66,-169 123,-191 140,-416l-147 -26z"/>
   <path class="fil0" d="M5070 9453l-113 -570c-50,-127 -15,-71 -130,-113 -73,151 0,548 0,829 -428,-227 -180,-267 -488,-293 71,267 255,310 337,492 67,146 48,580 248,580 228,0 -26,-31 145,-30 321,2 182,173 598,-250 316,-321 173,-134 426,-256 -104,-389 -341,-114 -584,49 -130,-541 182,-520 195,-1072 -253,21 -156,47 -260,276l-115 276c-34,63 -33,46 -64,82l0 -829 -146 0c-15,184 -48,161 -51,388 -1,146 2,295 2,441z"/>
   <path class="fil0" d="M11502 7796c0,-67 -15,-54 49,-30l212 -214c-82,0 -66,24 -66,-48l97 0c93,-127 109,-104 293,-147l0 -146c-356,-85 -348,36 -585,195 -79,-340 -49,-238 55,-529 54,-150 135,-340 140,-543 -269,23 -157,65 -325,455 -31,73 -14,43 -48,98 -80,128 2,3 -66,81 0,-493 33,-432 0,-829l-146 0c-5,219 -49,282 -49,829l-48 0c0,-142 5,-235 -19,-372 -40,-232 11,-209 -128,-311 -178,131 -48,90 -48,829 -162,-108 -401,-459 -470,-278 -33,88 48,128 115,193 137,133 215,177 249,386 56,356 -17,222 154,478 175,-14 120,-41 237,-36 248,11 127,119 397,-61z"/>
   <path class="fil0" d="M13548 9488l98 14 48 -244c-567,-48 -267,115 -633,146 0,-523 328,-747 195,-1023 -204,107 -117,64 -228,308 -195,431 -36,262 -211,325 40,-169 48,-163 51,-389 2,-258 47,-283 -99,-391 -168,123 -98,295 -98,780l-49 0c0,-290 -91,-367 -97,-633l-146 0 59 778c-299,-76 -183,-265 -498,-291 16,188 20,145 133,257 89,87 112,117 208,181 0,301 44,391 147,585 677,0 433,189 818,-254 121,-139 90,-28 205,-184l97 35z"/>
   <path class="fil0" d="M2780 9306c7,303 140,478 146,780 -253,-59 -264,-184 -487,-244 16,187 19,163 144,246 477,318 163,242 489,729 200,-17 266,-49 536,-49 63,-94 139,-198 194,-293 101,-175 71,-175 245,-292 0,23 -2,128 4,144 49,138 -24,2 71,100l-33 -301 202 34c-9,-12 -21,-43 -25,-35l-47 -64c-6,-8 -15,-21 -22,-29 -192,-222 -396,25 -442,200 -284,-76 -189,-308 -158,-498 95,-570 109,-522 -86,-574 -19,231 -146,548 -146,731l-49 0c0,-212 -101,-635 -146,-828l-98 0c-63,270 49,481 49,828l-49 0c0,-279 -122,-297 -146,-585l-146 0z"/>
   <path class="fil0" d="M18372 8843l0 366 -49 0c0,-193 -33,-163 -48,-330 -56,-60 -72,-75 -163,-121l24 256 -9 390c-141,-75 -110,-39 -230,-158 -115,-115 -61,-118 -256,-135 34,413 258,70 386,736 34,178 30,154 101,288 1031,0 476,-13 915,-353 97,-74 205,-122 352,-135 -38,-457 -386,-52 -585,0 -150,-314 186,-614 195,-1023l-146 0c-39,169 -176,574 -341,634 62,-266 49,-454 49,-780 -274,0 -63,-8 -130,49l39 250 -104 66z"/>
   <path class="fil0" d="M11232 24460l51 208 -2839 -7 23 -2735c-75,69 -89,-47 -86,291l2 2486 2924 0c0,-260 -5,-171 -75,-243z"/>
   <path class="fil0" d="M9933 4142c48,131 -7,52 92,163 7,6 76,67 76,67 75,51 14,13 85,38 175,-66 123,-52 127,-171 -124,-112 -160,-225 -352,-244l-28 147z"/>
   <polygon class="fil0" points="9839,4142 9933,4142 9961,3995 9894,4009 "/>
  </g>
 </g>
</svg>
