<?xml version="1.0" encoding="UTF-8"?>
<!DOCTYPE svg PUBLIC "-//W3C//DTD SVG 1.1//EN" "http://www.w3.org/Graphics/SVG/1.1/DTD/svg11.dtd">
<!-- Creator: CorelDRAW X8 -->
<svg xmlns="http://www.w3.org/2000/svg" xml:space="preserve" width="182.88mm" height="137.894mm" version="1.1" style="shape-rendering:geometricPrecision; text-rendering:geometricPrecision; image-rendering:optimizeQuality; fill-rule:evenodd; clip-rule:evenodd"
viewBox="0 0 16801 12668"
 xmlns:xlink="http://www.w3.org/1999/xlink">
 <defs>
  <style type="text/css">
   <![CDATA[
    .fil0 {fill:#FEFEFE}
   ]]>
  </style>
 </defs>
 <g id="Camada_x0020_1">
  <metadata id="CorelCorpID_0Corel-Layer"/>
  <path class="fil0" d="M9425 12668c232,-58 116,-58 58,-116l-58 116z"/>
  <g id="_751768608">
   <polygon class="fil0" points="16801,3276 16801,2688 16717,2688 16717,2520 16633,2520 16633,2436 16465,2436 16465,2352 12601,2352 12601,4704 13357,4704 13357,4788 13525,4788 13525,4872 13609,4872 13609,5040 13693,5040 13693,5628 13609,5628 13609,5712 13525,5712 13525,5880 13441,5880 13441,5964 13357,5964 13357,6048 13273,6048 13273,6216 13189,6216 13189,6300 13105,6300 13105,6468 13021,6468 13021,6552 12937,6552 12937,6636 12853,6636 12853,6804 12769,6804 12769,6888 12685,6888 12685,6972 12601,6972 12601,7140 12517,7140 12517,7224 12433,7224 12433,7308 12349,7308 12349,7476 12265,7476 12265,7560 12181,7560 12181,7644 12097,7644 12097,7812 12013,7812 12013,7896 11929,7896 11929,7980 11845,7980 11845,8148 11761,8148 11761,8232 11677,8232 11677,8400 11593,8400 11593,8484 11509,8484 11509,8568 11425,8568 11425,8736 11341,8736 11341,8820 11173,8820 11173,8904 10585,8904 10585,8820 10501,8820 10501,8736 10417,8736 10417,8652 10333,8652 10333,8568 10248,8568 10248,8484 10164,8484 10164,8316 10080,8316 10080,8232 9996,8232 9996,8148 9912,8148 9912,7980 9828,7980 9828,7896 9744,7896 9744,7812 9660,7812 9660,7644 9576,7644 9576,7560 9492,7560 9492,7476 9408,7476 9408,7308 9324,7308 9324,7224 9240,7224 9240,7056 9156,7056 9156,6972 9072,6972 9072,6888 8988,6888 8988,6720 8904,6720 8904,6636 8820,6636 8820,6552 8736,6552 8736,6384 8652,6384 8652,6300 8568,6300 8568,6216 8484,6216 8484,6048 8400,6048 8400,5964 8316,5964 8316,5880 8232,5880 8232,5712 8148,5712 8148,5628 8064,5628 8064,5040 8148,5040 8148,4872 8232,4872 8232,4788 8400,4788 8400,4704 9156,4704 9156,2352 5292,2352 5292,2436 5124,2436 5124,2520 5040,2520 5040,2688 4956,2688 4956,3276 5040,3276 5040,3444 5124,3444 5124,3528 5292,3528 5292,3612 5628,3612 5628,3696 5712,3696 5712,4032 5796,4032 5796,4368 5880,4368 5880,4704 5964,4704 5964,4872 6048,4872 6048,5124 6132,5124 6132,5460 6216,5460 6216,5796 6300,5796 6300,6132 6384,6132 6384,6300 6468,6300 6468,6552 6552,6552 6552,6888 6636,6888 6636,7224 6720,7224 6720,7560 6804,7560 6804,7728 6888,7728 6888,7980 6972,7980 6972,8316 7056,8316 7056,8652 7140,8652 7140,8988 7224,8988 7224,9156 7308,9156 7308,9240 14449,9240 14449,9156 14533,9156 14533,8988 14617,8988 14617,8652 14701,8652 14701,8400 14785,8400 14785,8148 14869,8148 14869,7728 14953,7728 14953,7560 15037,7560 15037,7224 15121,7224 15121,6972 15205,6972 15205,6720 15289,6720 15289,6300 15373,6300 15373,6132 15457,6132 15457,5796 15541,5796 15541,5544 15625,5544 15625,5292 15709,5292 15709,4872 15793,4872 15793,4704 15877,4704 15877,4368 15961,4368 15961,4116 16045,4116 16045,3864 16129,3864 16129,3612 16465,3612 16465,3528 16633,3528 16633,3444 16717,3444 16717,3276 "/>
   <polygon class="fil0" points="9660,588 9576,588 9576,5124 8568,5124 8568,5208 8484,5208 8484,5460 8568,5460 8568,5628 8652,5628 8652,5712 8736,5712 8736,5796 8820,5796 8820,5964 8904,5964 8904,6048 8988,6048 8988,6132 9072,6132 9072,6300 9156,6300 9156,6384 9240,6384 9240,6468 9324,6468 9324,6636 9408,6636 9408,6720 9492,6720 9492,6804 9576,6804 9576,6972 9660,6972 9660,7056 9744,7056 9744,7140 9828,7140 9828,7308 9912,7308 9912,7392 9996,7392 9996,7560 10080,7560 10080,7644 10164,7644 10164,7728 10248,7728 10248,7896 10333,7896 10333,7980 10417,7980 10417,8064 10501,8064 10501,8232 10585,8232 10585,8316 10669,8316 10669,8400 10753,8400 10753,8484 11005,8484 11005,8400 11089,8400 11089,8316 11173,8316 11173,8232 11257,8232 11257,8148 11341,8148 11341,7980 11425,7980 11425,7896 11509,7896 11509,7728 11593,7728 11593,7644 11677,7644 11677,7560 11761,7560 11761,7392 11845,7392 11845,7308 11929,7308 11929,7224 12013,7224 12013,7056 12097,7056 12097,6972 12181,6972 12181,6888 12265,6888 12265,6720 12349,6720 12349,6636 12433,6636 12433,6552 12517,6552 12517,6384 12601,6384 12601,6300 12685,6300 12685,6216 12769,6216 12769,6048 12853,6048 12853,5964 12937,5964 12937,5796 13021,5796 13021,5712 13105,5712 13105,5628 13189,5628 13189,5460 13273,5460 13273,5208 13189,5208 13189,5124 12181,5124 12181,504 12097,504 12097,420 9660,420 "/>
   <polygon class="fil0" points="0,252 0,1008 84,1008 84,1092 168,1092 168,1176 3108,1176 3108,1092 3192,1092 3192,924 3276,924 3276,840 3528,840 3528,1092 3612,1092 3612,1344 3696,1344 3696,1596 3780,1596 3780,1848 3864,1848 3864,2016 3948,2016 3948,2352 4032,2352 4032,2604 4116,2604 4116,2940 4200,2940 4200,3276 4284,3276 4284,3528 4368,3528 4368,3780 4452,3780 4452,3948 4536,3948 4536,4200 4620,4200 4620,4620 4704,4620 4704,4788 4788,4788 4788,5124 4872,5124 4872,5292 4956,5292 4956,5628 5040,5628 5040,5964 5124,5964 5124,6132 5208,6132 5208,6468 5292,6468 5292,6804 5376,6804 5376,6972 5460,6972 5460,7308 5544,7308 5544,7644 5628,7644 5628,7812 5712,7812 5712,8148 5796,8148 5796,8400 5880,8400 5880,8736 5964,8736 5964,8904 6048,8904 6048,9156 6132,9156 6132,9408 6216,9408 6216,9744 6300,9744 6300,9912 6384,9912 6384,9996 14533,9996 14533,9660 14449,9660 14449,9576 6636,9576 6636,9324 6552,9324 6552,9072 6468,9072 6468,8820 6384,8820 6384,8484 6300,8484 6300,8316 6216,8316 6216,7896 6132,7896 6132,7728 6048,7728 6048,7392 5964,7392 5964,7224 5880,7224 5880,6804 5796,6804 5796,6552 5712,6552 5712,6384 5628,6384 5628,6048 5544,6048 5544,5712 5460,5712 5460,5544 5376,5544 5376,5208 5292,5208 5292,4872 5208,4872 5208,4704 5124,4704 5124,4368 5040,4368 5040,4116 4956,4116 4956,3780 4872,3780 4872,3528 4788,3528 4788,3360 4704,3360 4704,3024 4620,3024 4620,2772 4536,2772 4536,2436 4452,2436 4452,2268 4368,2268 4368,1932 4284,1932 4284,1680 4200,1680 4200,1344 4116,1344 4116,1176 4032,1176 4032,840 3948,840 3948,588 3864,588 3864,420 3276,420 3276,252 3192,252 3192,168 3108,168 3108,84 3024,84 3024,0 252,0 252,84 168,84 168,168 84,168 84,252 "/>
   <polygon class="fil0" points="14113,12349 14785,12349 14785,12265 14953,12265 14953,12181 15121,12181 15121,12097 15205,12097 15205,12013 15289,12013 15289,11929 15373,11929 15373,11845 15457,11845 15457,11677 15541,11677 15541,10753 15457,10753 15457,10585 15373,10585 15373,10501 15289,10501 15289,10417 15205,10417 15205,10333 15121,10333 15121,10248 14953,10248 14953,10164 14785,10164 14785,10080 14281,10080 14281,10164 13945,10164 13945,10248 13777,10248 13777,10333 13693,10333 13693,10417 13609,10417 13609,10501 13525,10501 13525,10669 13441,10669 13441,10837 13357,10837 13357,11593 13441,11593 13441,11761 13525,11761 13525,11929 13609,11929 13609,12013 13693,12013 13693,12097 13861,12097 13861,12181 13945,12181 13945,12265 14113,12265 "/>
   <polygon class="fil0" points="6216,12349 6804,12349 6804,12265 6972,12265 6972,12181 7140,12181 7140,12097 7224,12097 7224,12013 7308,12013 7308,11929 7392,11929 7392,11845 7476,11845 7476,11761 7560,11761 7560,11509 7644,11509 7644,11005 7560,11005 7560,10669 7476,10669 7476,10585 7392,10585 7392,10501 7308,10501 7308,10417 7224,10417 7224,10333 7140,10333 7140,10248 7056,10248 7056,10164 6804,10164 6804,10080 6300,10080 6300,10164 5964,10164 5964,10248 5880,10248 5880,10333 5796,10333 5796,10417 5712,10417 5712,10501 5628,10501 5628,10585 5544,10585 5544,10669 5460,10669 5460,10921 5376,10921 5376,11509 5460,11509 5460,11677 5544,11677 5544,11845 5628,11845 5628,11929 5712,11929 5712,12013 5796,12013 5796,12097 5880,12097 5880,12181 6048,12181 6048,12265 6216,12265 "/>
   <polygon class="fil0" points="252,0 0,0 0,252 84,252 84,168 168,168 168,84 252,84 "/>
  </g>
 </g>
</svg>
