<?xml version="1.0" encoding="UTF-8"?>
<!DOCTYPE svg PUBLIC "-//W3C//DTD SVG 1.1//EN" "http://www.w3.org/Graphics/SVG/1.1/DTD/svg11.dtd">
<!-- Creator: CorelDRAW X8 -->
<svg xmlns="http://www.w3.org/2000/svg" xml:space="preserve" width="211.667mm" height="174.532mm" version="1.1" style="shape-rendering:geometricPrecision; text-rendering:geometricPrecision; image-rendering:optimizeQuality; fill-rule:evenodd; clip-rule:evenodd"
viewBox="0 0 20577 16967"
 xmlns:xlink="http://www.w3.org/1999/xlink">
 <defs>
  <style type="text/css">
   <![CDATA[
    .fil0 {fill:#FEFEFE}
   ]]>
  </style>
 </defs>
 <g id="Camada_x0020_1">
  <metadata id="CorelCorpID_0Corel-Layer"/>
  <g id="_751779968">
   <path class="fil0" d="M10881 10468c245,-62 122,-62 61,-123l-61 123z"/>
   <polygon class="fil0" points="9959,12617 9898,12556 9837,12679 "/>
   <path class="fil0" d="M12996 14801c0,1444 361,1083 -1083,1083 361,-722 -361,-361 1083,-1083zm-3971 361l1083 722c-2166,0 -722,361 -1083,-722zm4332 -1083c722,-722 0,-361 1083,-722l361 1444c-1444,-361 -722,361 -1444,-722zm-8664 -12274c2166,1805 1083,1444 4332,1083 1083,1083 2527,1805 2527,3249 -2527,-361 -1444,-1805 -3249,-1805l361 1083c-361,722 361,0 -722,722l-3971 4332c0,0 -361,0 -1083,-1083 -1444,-4332 -722,-1083 -1805,-3610l3610 -3971zm9386 722l1444 -1444c1805,722 2166,2166 3971,3610 -1083,1805 -1083,722 -1805,2888 -722,2888 -5415,7220 -7220,7581 0,-2527 1444,-1444 2166,-3971 -1805,722 -3249,3610 -4693,3610 -722,-1805 2527,-2166 3249,-4693 -2527,0 -3249,3249 -5415,3971 0,-1805 722,-1805 1444,-2888 1083,-722 1805,-1083 2166,-2888 -2166,1083 -3249,3971 -4332,3249 0,-361 -1083,361 361,-1444 1444,-1444 2888,-2166 3971,-3971 1083,361 1444,722 2888,361 361,-2166 -722,-2166 -1444,-3249 1083,-1083 1444,-1083 3249,-722zm-14079 3249l0 361c3971,4332 0,1083 3971,5776 1444,1444 -361,1083 1083,2527 1083,1083 1083,0 2166,1083 1083,361 1083,722 1805,1444l1444 0 2527 0c1805,-1805 2527,-722 2888,-2527 0,-1083 0,-361 361,-1444 722,-1444 0,-722 361,-1805 0,-722 1444,-1444 1805,-2888 722,-1805 722,-2166 2166,-2888l0 -361 -5054 -5054 -361 0 -1444 1444c-3971,0 -2166,361 -3971,1083 -1083,-361 -1805,-722 -2888,0l-1805 -1805 -5054 5054z"/>
  </g>
 </g>
</svg>
