<?xml version="1.0" encoding="UTF-8"?>
<!DOCTYPE svg PUBLIC "-//W3C//DTD SVG 1.1//EN" "http://www.w3.org/Graphics/SVG/1.1/DTD/svg11.dtd">
<!-- Creator: CorelDRAW X8 -->
<svg xmlns="http://www.w3.org/2000/svg" xml:space="preserve" width="243.904mm" height="146.668mm" version="1.1" style="shape-rendering:geometricPrecision; text-rendering:geometricPrecision; image-rendering:optimizeQuality; fill-rule:evenodd; clip-rule:evenodd"
viewBox="0 0 33492 20140"
 xmlns:xlink="http://www.w3.org/1999/xlink">
 <defs>
  <style type="text/css">
   <![CDATA[
    .fil0 {fill:#FEFEFE}
   ]]>
  </style>
 </defs>
 <g id="Camada_x0020_1">
  <metadata id="CorelCorpID_0Corel-Layer"/>
  <g id="_751753664">
   <path class="fil0" d="M33193 8077c499,-124 250,-124 125,-249l-125 249z"/>
   <polygon class="fil0" points="31322,12443 31197,12319 31073,12568 "/>
   <path class="fil0" d="M17590 18865l-510 0 0 -255 -509 0 0 -255 -255 0 0 -255 764 0 0 -255 765 0 0 -255 510 0 0 -255 1020 0 0 -254 255 0 0 -255 510 0 0 -255 764 0 0 -255 765 0 0 255 255 0 0 -510 510 0 0 -255 765 0 0 -255 255 0 0 1020 255 0 0 -1275 510 0 0 2549 -765 0 0 255 -255 0 0 255 -255 0 0 765 -5354 0 0 -255zm-255 -3314l0 -255 255 0 0 -255 510 0 0 -255 255 0 0 -255 255 0 0 -255 255 0 0 -255 255 0 0 -255 510 0 0 -255 255 0 0 -254 510 0 0 -255 255 0 0 -255 254 0 0 -255 255 0 0 -255 255 0 0 255 255 0 0 -510 255 0 0 -255 255 0 0 765 255 0 0 1019 -510 0 0 510 -255 0 0 1275 -765 0 0 255 -509 0 0 255 -765 0 0 255 -765 0 0 255 -1020 0 0 255 -510 0 0 255 -1529 0 0 -255 255 0 0 -255 255 0 0 -255 255 0 0 -255 509 0 0 -255 255 0zm-2039 -255l0 510 -255 0 0 255 -255 0 0 255 -510 0 0 255 -255 0 0 255 -255 0 0 255 -255 0 0 254 -509 0 0 255 -255 0 0 255 -255 0 0 -255 -255 0 0 -255 -1530 0 0 255 -255 0 0 -255 -255 0 0 -254 -255 0 0 -510 -255 0 0 -255 -254 0 0 -255 -255 0 0 -255 -255 0 0 -510 -255 0 0 -255 255 0 0 -510 255 0 0 -1020 -255 0 0 -509 255 0 0 -255 255 0 0 -255 254 0 0 -255 510 0 0 -255 255 0 0 -255 255 0 0 -255 255 0 0 -255 765 0 0 -255 255 0 0 -255 255 0 0 -255 255 0 0 -255 510 0 0 -255 254 0 0 -509 510 0 0 -255 255 0 0 -255 255 0 0 -255 255 0 0 -255 510 0 0 -255 255 0 0 -255 255 0 0 -255 765 0 0 255 2039 0 0 510 255 0 0 255 255 0 0 255 255 0 0 255 255 0 0 509 255 0 0 255 255 0 0 510 -255 0 0 510 -255 0 0 1020 255 0 0 510 -255 0 0 255 -510 0 0 255 -255 0 0 255 -255 0 0 254 -255 0 0 255 -510 0 0 255 -255 0 0 255 -255 0 0 255 -764 0 0 255 -255 0 0 255 -255 0 0 255 -510 0zm765 -9178l0 255 -510 0 0 255 -255 0 0 255 -255 0 0 255 -510 0 0 255 -255 0 0 255 -255 0 0 255 -255 0 0 255 -255 0 0 255 -509 0 0 255 -255 0 0 255 -255 0 0 255 -510 0 0 255 -255 0 0 254 -255 0 0 255 -510 0 0 255 -255 0 0 255 -255 0 0 255 -255 0 0 255 -510 0 0 255 -254 0 0 255 -255 0 0 255 -510 0 0 255 -255 0 0 255 -255 0 0 255 -255 0 0 255 -510 0 0 255 -255 0 0 255 -255 0 0 254 -510 0 0 510 255 0 0 255 255 0 0 510 255 0 0 255 255 0 0 255 255 0 0 510 255 0 0 255 255 0 0 255 255 0 0 255 255 0 0 510 255 0 0 764 510 0 0 255 254 0 0 255 255 0 0 255 255 0 0 255 255 0 0 510 255 0 0 255 255 0 0 255 255 0 0 255 14021 0 0 -8158 -2039 0 0 -255 -255 0 0 -765 -255 0 0 -510 -255 0 0 -765 -255 0 0 -764 -255 0 0 -510 -255 0 0 -765 -510 0 0 255 -509 0 0 255 -1020 0 0 -255 -255 0 0 -255 -255 0 0 -255 -255 0 0 -255 -255 0 0 -510 -255 0 0 -255 -255 0 0 -255 -255 0 0 -255 -255 0 0 -509 -764 0 0 255 -255 0 0 254 -255 0 0 255 -255 0z"/>
   <path class="fil0" d="M8158 16316l0 1529 -3059 0 0 -1529 3059 0zm-6628 0l2804 0 0 1529 -2804 0 0 -1529zm0 -2805l2804 0 0 1785 -2804 0 0 -1785zm0 -2804l2804 0 0 1785 -2804 0 0 -1785zm9177 8923l0 -255 -255 0 0 -510 -255 0 0 -255 -255 0 0 -255 -255 0 0 -255 -254 0 0 -255 -510 0 0 -764 -255 0 0 -510 -255 0 0 -255 -255 0 0 -255 -255 0 0 -255 -255 0 0 -510 -2549 0 0 -1785 1784 0 0 -254 255 0 0 -255 255 0 0 -255 510 0 0 -255 -2804 0 0 -1785 3059 0 0 1530 255 0 0 -255 255 0 0 -255 255 0 0 -1020 1529 0 0 -255 255 0 0 -255 255 0 0 -255 510 0 0 -255 -9942 0 0 -3059 10197 0 0 2805 255 0 0 -255 510 0 0 -255 255 0 0 -2805 -255 0 0 -509 -510 0 0 -255 -10707 0 0 255 -510 0 0 509 -255 0 0 12747 255 0 0 255 255 0 0 255 255 0 0 255 9432 0z"/>
   <polygon class="fil0" points="0,5863 0,19120 255,19120 255,19375 510,19375 510,19630 765,19630 765,19885 1275,19885 1275,20140 11217,20140 11217,19885 10962,19885 10962,19630 1275,19630 1275,19375 1020,19375 1020,19120 765,19120 765,18865 510,18865 510,6118 765,6118 765,5609 1275,5609 1275,5354 11982,5354 11982,5609 12492,5609 12492,6118 12747,6118 12747,8668 13002,8668 13002,8413 13511,8413 13511,8158 13256,8158 13256,5863 13002,5863 13002,5354 12747,5354 12747,5099 12237,5099 12237,4844 1020,4844 1020,5099 510,5099 510,5354 255,5354 255,5863 "/>
   <path class="fil0" d="M16826 9433l254 0 0 -255 1275 0 0 255 255 0 0 1019 -255 0 0 255 -1275 0 0 -510 -254 0 0 -764zm-3570 509l2295 0 0 255 510 0 0 255 255 0 0 255 255 0 0 255 255 0 0 510 254 0 0 2294 -254 0 0 510 -255 0 0 255 509 0 0 -255 255 0 0 -255 255 0 0 -255 510 0 0 -255 255 0 0 -254 255 0 0 -255 255 0 0 -255 510 0 0 -255 255 0 0 -510 -255 0 0 -1020 255 0 0 -510 255 0 0 -510 -255 0 0 -255 -255 0 0 -509 -255 0 0 -255 -255 0 0 -255 -255 0 0 -255 -255 0 0 -510 -2039 0 0 -255 -765 0 0 255 -255 0 0 255 -255 0 0 255 -510 0 0 255 -255 0 0 255 -255 0 0 255 -255 0 0 255 -510 0 0 509z"/>
   <path class="fil0" d="M11472 16061l-255 0 0 255 -1020 0 0 -255 -255 0 0 -1275 255 0 0 -255 1020 0 0 255 255 0 0 255 255 0 0 765 -255 0 0 255zm3824 -765l-255 0 0 255 -1530 0 0 -255 -764 0 0 -255 -255 0 0 -255 -255 0 0 -255 -255 0 0 -255 -255 0 0 -510 -255 0 0 -2294 255 0 0 -255 -765 0 0 255 -255 0 0 255 -255 0 0 255 -255 0 0 255 -510 0 0 255 -254 0 0 255 -255 0 0 255 -255 0 0 509 255 0 0 1020 -255 0 0 510 -255 0 0 255 255 0 0 510 255 0 0 255 255 0 0 255 254 0 0 255 255 0 0 510 255 0 0 254 255 0 0 255 255 0 0 -255 1530 0 0 255 255 0 0 255 255 0 0 -255 255 0 0 -255 509 0 0 -254 255 0 0 -255 255 0 0 -255 255 0 0 -255 510 0 0 -255 255 0 0 -255 255 0 0 -510z"/>
   <polygon class="fil0" points="13002,10962 12747,10962 12747,11472 13002,11472 13002,12747 13256,12747 13256,13002 14276,13002 14276,12747 15041,12747 15041,13511 14021,13511 14021,13766 13766,13766 13766,14021 14276,14021 14276,14276 15296,14276 15296,14531 15806,14531 15806,12747 15551,12747 15551,12492 15296,12492 15296,12237 13511,12237 13511,11727 14531,11727 14531,11217 13511,11217 13511,10962 13256,10962 13256,10707 13002,10707 "/>
   <polygon class="fil0" points="13766,7903 14021,7903 14021,7648 14276,7648 14276,7393 14531,7393 14531,7138 15041,7138 15041,6883 14786,6883 14786,5354 13511,5354 13511,7648 13766,7648 "/>
   <polygon class="fil0" points="8158,9178 9178,9178 9178,7138 8158,7138 "/>
   <polygon class="fil0" points="4334,15041 1785,15041 1785,13766 2804,13766 2804,14021 3314,14021 3314,13766 4334,13766 4334,13511 1530,13511 1530,15296 4334,15296 "/>
   <polygon class="fil0" points="4334,12237 3314,12237 3314,11982 2804,11982 2804,12237 1785,12237 1785,10962 4334,10962 4334,10707 1530,10707 1530,12492 4334,12492 "/>
   <polygon class="fil0" points="10707,7138 9687,7138 9687,8923 10707,8923 "/>
   <polygon class="fil0" points="5354,12492 5354,10962 7903,10962 7903,12492 8158,12492 8158,10707 5099,10707 5099,12492 "/>
   <polygon class="fil0" points="14276,2294 14786,2294 14786,0 14276,0 "/>
   <polygon class="fil0" points="16061,2294 16571,2294 16571,0 16061,0 "/>
   <polygon class="fil0" points="16061,4844 16571,4844 16571,2804 16061,2804 "/>
   <polygon class="fil0" points="14276,4844 14786,4844 14786,2804 14276,2804 "/>
   <polygon class="fil0" points="10962,4844 10962,2804 10452,2804 10452,4844 "/>
   <polygon class="fil0" points="7393,15296 7393,15041 5354,15041 5354,13511 5099,13511 5099,15296 "/>
   <polygon class="fil0" points="9687,8923 9687,9178 10962,9178 10962,7138 10707,7138 10707,8923 "/>
   <polygon class="fil0" points="10197,10707 8923,10707 8923,11727 9178,11727 9178,11472 9433,11472 9433,11217 9687,11217 9687,10962 10197,10962 "/>
   <polygon class="fil0" points="1275,20140 1275,19885 765,19885 765,19630 510,19630 510,19375 255,19375 255,19120 0,19120 0,20140 "/>
   <polygon class="fil0" points="2804,17590 3314,17590 3314,16571 2804,16571 "/>
   <polygon class="fil0" points="20395,13257 20904,13257 20904,13002 21414,13002 21414,12237 21159,12237 21159,12492 20904,12492 20904,12747 20650,12747 20650,13002 20395,13002 "/>
   <polygon class="fil0" points="6373,17590 6883,17590 6883,16571 6373,16571 "/>
   <polygon class="fil0" points="3314,14021 2804,14021 2804,14786 3314,14786 "/>
   <polygon class="fil0" points="16826,5354 16061,5354 16061,6118 16316,6118 16316,5863 16571,5863 16571,5609 16826,5609 "/>
   <polygon class="fil0" points="6373,11982 6883,11982 6883,11217 6373,11217 "/>
   <polygon class="fil0" points="3314,11982 3314,11217 2804,11217 2804,11982 "/>
   <polygon class="fil0" points="6883,14786 6883,14276 6628,14276 6628,14021 6373,14021 6373,14786 "/>
   <polygon class="fil0" points="16826,15806 16826,16061 17335,16061 17335,15551 17080,15551 17080,15806 "/>
  </g>
 </g>
</svg>
