<?xml version="1.0" encoding="UTF-8"?>
<!DOCTYPE svg PUBLIC "-//W3C//DTD SVG 1.1//EN" "http://www.w3.org/Graphics/SVG/1.1/DTD/svg11.dtd">
<!-- Creator: CorelDRAW X8 -->
<svg xmlns="http://www.w3.org/2000/svg" xml:space="preserve" width="173.059mm" height="184.281mm" version="1.1" style="shape-rendering:geometricPrecision; text-rendering:geometricPrecision; image-rendering:optimizeQuality; fill-rule:evenodd; clip-rule:evenodd"
viewBox="0 0 19037 20271"
 xmlns:xlink="http://www.w3.org/1999/xlink">
 <defs>
  <style type="text/css">
   <![CDATA[
    .fil0 {fill:#FEFEFE}
   ]]>
  </style>
 </defs>
 <g id="Camada_x0020_1">
  <metadata id="CorelCorpID_0Corel-Layer"/>
  <g id="_751755200">
   <path class="fil0" d="M11857 8988c339,-85 169,-85 84,-170l-84 170z"/>
   <path class="fil0" d="M13386 11283c0,191 0,191 -191,191l-1147 574 -191 -1530 1529 765zm-1721 765c-1721,191 -8223,-383 -9179,191 765,383 4972,191 6120,191 6119,0 2868,-191 5354,-573 0,1721 0,3442 0,5163 0,2104 -191,2868 -2295,2868 -12430,192 -11283,957 -11283,-4398l0 -10518c0,-2295 1148,-2103 3251,-2103 192,573 0,382 383,956l6311 0c191,-383 191,-574 191,-956 2295,0 4781,0 2677,3633 -382,765 -956,1530 -1338,2486 -957,1339 -574,1530 -192,3060zm1339 -1339c574,-1147 1530,-2486 2104,-3633 573,-1148 1338,-2678 2103,-3634l765 574 -4016 7076 -956 -383zm2869 -8032l956 574c-383,574 -3825,6693 -4207,7076l-765 -383 4016 -7267zm-11666 -765c765,-191 1339,0 1530,-382 574,-383 0,-574 765,-956 1339,-574 1530,573 2104,1147 956,191 1529,-191 1529,765 0,1339 -1338,956 -2677,956 -1147,0 -2295,0 -3251,-191l0 -1339zm14534 765c-191,574 0,383 -382,956l-2104 -1338 191 -574c765,-574 1913,383 2295,956zm-18741 956l0 15299 1339 1339 11665 0c574,-574 1147,-765 1339,-2104 382,-8796 -1530,-4207 3824,-13577 383,-765 1148,-1530 765,-2295 -191,-574 -1530,-1148 -2486,-1148 -573,574 -1530,2486 -1912,3251l-383 -956c-765,-1338 -1912,-956 -3442,-956l-382 -956 -1530 -191c-383,-574 -574,-1148 -1530,-1339 -1147,0 -1530,574 -1721,1339l-1530 191 -383 956c-2677,0 -2294,-191 -3633,1147z"/>
   <path class="fil0" d="M9944 13769c383,382 -191,191 574,574l-1339 1338c-1912,0 -1530,383 -2677,1148 -956,-192 -956,-574 -2104,-574 -382,382 -573,574 -956,956 -573,574 -573,383 -765,1148 574,-383 1530,-1148 1913,-1913l2103 956c3634,-3633 0,1339 4016,-2868l191 191c0,0 0,191 0,191 383,383 0,0 383,192l-191 -1339 -1148 0z"/>
   <path class="fil0" d="M2295 7267c765,574 7458,191 8797,191 1147,0 573,0 765,-191l-8606 -191c-382,0 -765,0 -956,191z"/>
  </g>
 </g>
</svg>
