<?xml version="1.0" encoding="UTF-8"?>
<!DOCTYPE svg PUBLIC "-//W3C//DTD SVG 1.1//EN" "http://www.w3.org/Graphics/SVG/1.1/DTD/svg11.dtd">
<!-- Creator: CorelDRAW X8 -->
<svg xmlns="http://www.w3.org/2000/svg" xml:space="preserve" width="180.266mm" height="120.721mm" version="1.1" style="shape-rendering:geometricPrecision; text-rendering:geometricPrecision; image-rendering:optimizeQuality; fill-rule:evenodd; clip-rule:evenodd"
viewBox="0 0 18611 12464"
 xmlns:xlink="http://www.w3.org/1999/xlink">
 <defs>
  <style type="text/css">
   <![CDATA[
    .fil0 {fill:#FEFEFE}
   ]]>
  </style>
 </defs>
 <g id="Camada_x0020_1">
  <metadata id="CorelCorpID_0Corel-Layer"/>
  <path class="fil0" d="M9329 8811c261,-65 130,-65 65,-130l-65 130z"/>
  <polygon class="fil0" points="8351,11094 8285,11029 8220,11159 "/>
  <g id="_751759936">
   <path class="fil0" d="M7201 8586c2770,831 1662,554 4155,0 831,831 1108,1662 1108,3047l-6371 0c277,-1108 554,-2216 1108,-3047zm5540 -1385c1661,554 2492,554 4431,0l831 3047 -4986 0 -830 -2216 554 -831zm-11910 3047c0,-1385 277,-2216 1108,-3047 1939,554 2216,554 4154,0l554 831c-277,831 -554,1108 -1108,2216l-4708 0zm-831 -1108l0 1662 4985 277c831,554 277,0 554,1385l7478 0 277 -1385c1385,0 3878,277 5263,-277 277,-1662 -554,-3601 -1385,-4155 -1108,-554 -831,277 -2216,277 -1108,0 -1385,-277 -2492,-554 -1939,2770 -4155,3047 -6094,0 -1108,0 -1385,554 -2492,554 -831,0 -1385,-277 -2216,-554 -1108,1385 -831,1385 -1662,2770z"/>
   <path class="fil0" d="M8309 2493c2770,-1662 4985,3046 1939,4154 -2770,1108 -4986,-2492 -1939,-4154zm-5539 -1385c2769,-1662 4985,2770 2215,4154 -1661,831 -4154,-554 -3323,-3046 277,-831 554,-831 1108,-1108zm13017 4154c-4431,554 -3877,-3600 -1939,-4431 1662,-554 2770,277 3324,1662 277,1385 -554,1938 -1385,2769zm0 -5262l-1939 0c-1107,831 -1661,831 -1938,1939l-277 554 -277 -277c-1939,-1385 -2770,-831 -4432,277 -554,-1662 -831,-1662 -1939,-2493l-2215 0c-1108,831 -2770,2216 -1662,4708 831,1662 3323,1939 4985,554 0,0 0,0 0,277 0,0 1108,1939 3047,1939 2216,277 2493,-1108 3324,-2216 1938,1108 3323,1385 4708,-554 1662,-2215 0,-3600 -1385,-4708z"/>
   <polygon class="fil0" points="11356,2216 11633,2493 11910,1939 "/>
  </g>
 </g>
</svg>
