<?xml version="1.0" encoding="UTF-8"?>
<!DOCTYPE svg PUBLIC "-//W3C//DTD SVG 1.1//EN" "http://www.w3.org/Graphics/SVG/1.1/DTD/svg11.dtd">
<!-- Creator: CorelDRAW X8 -->
<svg xmlns="http://www.w3.org/2000/svg" xml:space="preserve" width="200.576mm" height="150.995mm" version="1.1" style="shape-rendering:geometricPrecision; text-rendering:geometricPrecision; image-rendering:optimizeQuality; fill-rule:evenodd; clip-rule:evenodd"
viewBox="0 0 20010 15064"
 xmlns:xlink="http://www.w3.org/1999/xlink">
 <defs>
  <style type="text/css">
   <![CDATA[
    .fil0 {fill:#FEFEFE}
   ]]>
  </style>
 </defs>
 <g id="Camada_x0020_1">
  <metadata id="CorelCorpID_0Corel-Layer"/>
  <path class="fil0" d="M10334 9897c252,-63 126,-63 63,-126l-63 126z"/>
  <polygon class="fil0" points="9388,12103 9325,12040 9262,12166 "/>
  <g id="_751776960">
   <path class="fil0" d="M3041 5634c1439,-120 1463,-915 3461,-1058 3649,-261 1967,-392 3594,-1253 232,484 396,687 593,1109l501 1323 490 -2526c474,-2708 44,-1116 1578,-1852 -316,-472 -1673,-1037 -2322,-1202 -1231,-311 -4262,-240 -5331,473 -711,475 -1439,864 -2046,1490 -1189,1225 -2008,2634 -2106,4715 -182,3826 1350,1640 1588,-1219z"/>
   <path class="fil0" d="M11677 12080c-308,-71 -1824,-634 -1824,-851 0,-518 91,-187 52,-586 -43,-439 -112,-2 -71,-455 47,-526 361,-550 140,-1027 -766,-771 -1248,3163 -2919,3163 -849,0 -1460,-174 -1703,-1217l-113 1216 -1833 364c1273,1904 5540,3182 8476,1788 4313,-2047 2951,-2862 2047,-4647 -302,-596 -464,-1675 -914,-2005 -477,453 -1127,3351 -1338,4257z"/>
   <path class="fil0" d="M12772 5512l365 0 0 365 -365 0 0 -365zm-1703 5815l243 -50c1053,-2692 381,-3641 2190,-4062 192,824 511,1627 851,2313 170,345 373,788 449,959 152,342 320,692 524,985l122 0 728 -731c-271,-1170 -1580,-2644 -1580,-4134l4959 -2221c774,-441 342,-827 272,-1671 -747,358 -5282,2420 -5839,2432l-708 -2925c-844,-388 -893,-208 -1020,709 -62,453 -221,1373 -336,1855 -288,1203 -142,2262 -2193,2307l-338 1708 1656 -448 -723 2751c585,125 317,113 743,223z"/>
   <path class="fil0" d="M6447 9959l-244 84c-258,132 -407,346 -608,578 351,663 670,1586 1657,1182 1230,-504 1693,-3414 1846,-4613 198,-1544 614,-1060 1363,-1921l-484 -1096c-858,230 -634,974 -3409,974 -357,1532 -65,1460 1460,1460 0,1204 -158,3488 -1216,3771l-365 -419z"/>
   <path class="fil0" d="M2311 12080c1037,275 2311,-24 2311,-486 0,-1036 -576,-608 -1338,-608 0,-1910 1659,-1773 2676,-2311 -44,-533 -141,-639 -365,-973 -709,59 -932,350 -1581,364 237,-1017 120,-949 1386,-1533 352,-162 965,-161 317,-1386 -610,293 -1149,554 -1702,853 -821,444 -571,871 -826,1850 -303,1167 -1151,3060 -878,4230z"/>
   <path class="fil0" d="M1547 10864c90,-110 167,-188 278,-278 116,-434 266,-881 364,-1303 -590,13 -1788,396 -2189,608 0,1698 355,1294 1547,973z"/>
   <path class="fil0" d="M14019 2350c-52,530 49,578 133,1043 61,336 7,195 37,396 36,240 94,375 164,555l243 49c461,-63 641,-240 973,-462 -112,-483 -361,-725 -625,-1078 -279,-373 -458,-609 -834,-875 -223,142 -187,-246 -91,372z"/>
   <path class="fil0" d="M15278 6972l-50 243c122,295 275,653 463,924l198 292c176,428 107,387 410,609 411,-857 159,-1981 122,-2433 -430,100 -760,153 -1143,365z"/>
   <path class="fil0" d="M6812 8844l243 50 335 -1468c-1,-15 170,-524 -679,-194 -370,144 -418,1095 101,1612z"/>
   <path class="fil0" d="M4379 10013c198,82 1886,-172 1460,-609 -182,-85 19,-82 -256,-22 -387,84 -972,314 -1204,631z"/>
   <path class="fil0" d="M14019 2350c-96,-618 -132,-230 91,-372 -184,-255 -22,-154 -365,-237l218 531c10,19 36,53 56,78z"/>
   <path class="fil0" d="M1547 10864l278 0 0 -278c-111,90 -188,168 -278,278z"/>
   <path class="fil0" d="M11069 11327c125,179 -197,145 243,145l0 -195 -243 50z"/>
   <path class="fil0" d="M7055 8894l-243 -50 0 196c491,0 52,27 243,-146z"/>
   <path class="fil0" d="M14596 4393l-243 -49 0 195c491,0 52,28 243,-146z"/>
   <path class="fil0" d="M15228 7215l50 -243 -195 0c0,491 -28,52 145,243z"/>
   <path class="fil0" d="M6203 10043l244 -84 0 -190c-314,177 -145,108 -244,274z"/>
   <polygon class="fil0" points="15889,8431 15691,8139 15691,8431 "/>
   <path class="fil0" d="M4014 10134c0,302 195,31 75,0 -1,0 -75,-345 -75,0z"/>
   <path class="fil0" d="M10582 6364l37 -37c-3,3 -49,25 -37,37z"/>
   <polygon class="fil0" points="15448,11472 15326,11472 "/>
  </g>
 </g>
</svg>
