<?xml version="1.0" encoding="UTF-8"?>
<!DOCTYPE svg PUBLIC "-//W3C//DTD SVG 1.1//EN" "http://www.w3.org/Graphics/SVG/1.1/DTD/svg11.dtd">
<!-- Creator: CorelDRAW X8 -->
<svg xmlns="http://www.w3.org/2000/svg" xml:space="preserve" width="180.484mm" height="140.793mm" version="1.1" style="shape-rendering:geometricPrecision; text-rendering:geometricPrecision; image-rendering:optimizeQuality; fill-rule:evenodd; clip-rule:evenodd"
viewBox="0 0 16750 13067"
 xmlns:xlink="http://www.w3.org/1999/xlink">
 <defs>
  <style type="text/css">
   <![CDATA[
    .fil0 {fill:#FEFEFE}
   ]]>
  </style>
 </defs>
 <g id="Camada_x0020_1">
  <metadata id="CorelCorpID_0Corel-Layer"/>
  <path class="fil0" d="M10665 13067c381,-96 190,-96 95,-191l-95 191z"/>
  <path class="fil0" d="M10625 8264c885,295 1180,295 1771,885 -3247,1476 -7674,1181 -10920,0 0,0 0,-1475 2066,-590 2066,1180 5017,2066 7083,-295zm2066 -2361l1180 -2952c1771,886 886,2657 -1180,2952zm-11806 -3837c3837,885 8264,885 12101,0 -886,9149 -11215,8854 -12101,0zm14462 1771c0,-886 -295,-886 -590,-1476 1180,885 1770,1771 295,3542l295 -2066zm-14166 -2656c3541,-591 7673,-886 11215,0 -2066,1180 -9445,1180 -11215,0zm-1181 -296l0 2361c295,591 590,1771 885,2362 296,885 886,1475 1181,2066l-1476 590 0 1180c1476,1181 2656,886 4427,1476l4427 0c1476,-590 2656,-295 3837,-1771 -590,-1180 -885,-1180 -1771,-1771 4132,591 5903,-1770 5017,-4427 -590,-2066 -4131,-2066 -6492,-2951l-7379 0c-590,295 -2066,590 -2656,885z"/>
 </g>
</svg>
