<?xml version="1.0" encoding="UTF-8"?>
<!DOCTYPE svg PUBLIC "-//W3C//DTD SVG 1.1//EN" "http://www.w3.org/Graphics/SVG/1.1/DTD/svg11.dtd">
<!-- Creator: CorelDRAW X8 -->
<svg xmlns="http://www.w3.org/2000/svg" xml:space="preserve" width="200.714mm" height="65.3801mm" version="1.1" style="shape-rendering:geometricPrecision; text-rendering:geometricPrecision; image-rendering:optimizeQuality; fill-rule:evenodd; clip-rule:evenodd"
viewBox="0 0 20150 6564"
 xmlns:xlink="http://www.w3.org/1999/xlink">
 <defs>
  <style type="text/css">
   <![CDATA[
    .str0 {stroke:white;stroke-width:7.64983}
    .fil1 {fill:none}
    .fil3 {fill:none;fill-rule:nonzero}
    .fil0 {fill:#FEFEFE}
    .fil2 {fill:#FEFEFE;fill-rule:nonzero}
   ]]>
  </style>
   <mask id="id0">
  <linearGradient id="id1" gradientUnits="userSpaceOnUse" x1="20094.6" y1="6274.39" x2="3.82492" y2="6274.39">
   <stop offset="0" style="stop-opacity:0; stop-color:white"/>
   <stop offset="0.329412" style="stop-opacity:-127.502; stop-color:white"/>
   <stop offset="1" style="stop-opacity:1; stop-color:white"/>
  </linearGradient>
    <rect style="fill:url(#id1)" y="5985" width="20098" height="578"/>
   </mask>
   <clipPath id="id2" style="clip-rule:nonzero">
    <path d="M1976 1732c-150,-56 -290,-79 -452,-79 -697,0 -1266,586 -1266,1306 0,279 84,563 246,859 156,268 156,273 156,357 0,162 -145,290 -329,290 -101,0 -168,-22 -290,-101l0 1071c189,95 334,129 530,129 753,0 1327,-569 1327,-1317 0,-251 -61,-457 -228,-747 -173,-301 -185,-324 -185,-435 0,-168 140,-313 302,-313 55,0 94,12 189,39l0 -1059zm1663 16l-1105 0 0 3721 1105 0 0 -3721zm2320 1640l0 843 268 0c117,0 162,27 162,111 0,95 -90,145 -263,145 -507,0 -836,-340 -836,-859 0,-513 362,-876 881,-876 167,0 279,28 480,123l0 -1110c-246,-84 -413,-112 -636,-112 -1049,0 -1858,843 -1858,1936 0,1093 804,1975 1808,1975 786,0 1389,-558 1389,-1283 0,-324 -106,-603 -341,-893l-1054 0zm3821 -189l-608 0c-234,0 -312,-51 -312,-196 0,-133 83,-189 284,-189l709 0 0 -1066 -965 0c-737,0 -1166,408 -1166,1122l0 1461c0,368 117,653 346,853 239,212 479,285 914,285l871 0 0 -1066 -748 0c-184,0 -190,0 -240,-27 -44,-34 -78,-90 -78,-157 0,-61 28,-117 67,-150 50,-34 61,-39 201,-39l725 0 0 -831zm630 2270l1105 0 0 -2376c0,-235 78,-341 245,-341 162,0 235,106 235,341l0 2376 1104 0 0 -2376c0,-419 -67,-686 -229,-932 -212,-323 -602,-508 -1065,-508 -848,0 -1395,553 -1395,1401l0 2415zm5344 -2270l-608 0c-234,0 -312,-51 -312,-196 0,-133 83,-189 284,-189l709 0 0 -1066 -965 0c-737,0 -1166,408 -1166,1122l0 1461c0,368 117,653 346,853 240,212 479,285 915,285l870 0 0 -1066 -748 0c-184,0 -189,0 -240,-27 -44,-34 -78,-90 -78,-157 0,-61 28,-117 67,-150 50,-34 62,-39 201,-39l725 0 0 -831z"/>
   </clipPath>
    <clipPath id="id3">
     <path d="M1976 1732c-150,-56 -290,-79 -452,-79 -697,0 -1266,586 -1266,1306 0,279 84,563 246,859 156,268 156,273 156,357 0,162 -145,290 -329,290 -101,0 -168,-22 -290,-101l0 1071c189,95 334,129 530,129 753,0 1327,-569 1327,-1317 0,-251 -61,-457 -228,-747 -173,-301 -185,-324 -185,-435 0,-168 140,-313 302,-313 55,0 94,12 189,39l0 -1059zm1663 16l-1105 0 0 3721 1105 0 0 -3721zm2320 1640l0 843 268 0c117,0 162,27 162,111 0,95 -90,145 -263,145 -507,0 -836,-340 -836,-859 0,-513 362,-876 881,-876 167,0 279,28 480,123l0 -1110c-246,-84 -413,-112 -636,-112 -1049,0 -1858,843 -1858,1936 0,1093 804,1975 1808,1975 786,0 1389,-558 1389,-1283 0,-324 -106,-603 -341,-893l-1054 0zm3821 -189l-608 0c-234,0 -312,-51 -312,-196 0,-133 83,-189 284,-189l709 0 0 -1066 -965 0c-737,0 -1166,408 -1166,1122l0 1461c0,368 117,653 346,853 239,212 479,285 914,285l871 0 0 -1066 -748 0c-184,0 -190,0 -240,-27 -44,-34 -78,-90 -78,-157 0,-61 28,-117 67,-150 50,-34 61,-39 201,-39l725 0 0 -831zm630 2270l1105 0 0 -2376c0,-235 78,-341 245,-341 162,0 235,106 235,341l0 2376 1104 0 0 -2376c0,-419 -67,-686 -229,-932 -212,-323 -602,-508 -1065,-508 -848,0 -1395,553 -1395,1401l0 2415zm5344 -2270l-608 0c-234,0 -312,-51 -312,-196 0,-133 83,-189 284,-189l709 0 0 -1066 -965 0c-737,0 -1166,408 -1166,1122l0 1461c0,368 117,653 346,853 240,212 479,285 915,285l870 0 0 -1066 -748 0c-184,0 -189,0 -240,-27 -44,-34 -78,-90 -78,-157 0,-61 28,-117 67,-150 50,-34 62,-39 201,-39l725 0 0 -831z"/>
    </clipPath>
    <clipPath id="id4">
     <path d="M1976 1732c-150,-56 -290,-79 -452,-79 -697,0 -1266,586 -1266,1306 0,279 84,563 246,859 156,268 156,273 156,357 0,162 -145,290 -329,290 -101,0 -168,-22 -290,-101l0 1071c189,95 334,129 530,129 753,0 1327,-569 1327,-1317 0,-251 -61,-457 -228,-747 -173,-301 -185,-324 -185,-435 0,-168 140,-313 302,-313 55,0 94,12 189,39l0 -1059zm1663 16l-1105 0 0 3721 1105 0 0 -3721zm2320 1640l0 843 268 0c117,0 162,27 162,111 0,95 -90,145 -263,145 -507,0 -836,-340 -836,-859 0,-513 362,-876 881,-876 167,0 279,28 480,123l0 -1110c-246,-84 -413,-112 -636,-112 -1049,0 -1858,843 -1858,1936 0,1093 804,1975 1808,1975 786,0 1389,-558 1389,-1283 0,-324 -106,-603 -341,-893l-1054 0zm3821 -189l-608 0c-234,0 -312,-51 -312,-196 0,-133 83,-189 284,-189l709 0 0 -1066 -965 0c-737,0 -1166,408 -1166,1122l0 1461c0,368 117,653 346,853 239,212 479,285 914,285l871 0 0 -1066 -748 0c-184,0 -190,0 -240,-27 -44,-34 -78,-90 -78,-157 0,-61 28,-117 67,-150 50,-34 61,-39 201,-39l725 0 0 -831zm630 2270l1105 0 0 -2376c0,-235 78,-341 245,-341 162,0 235,106 235,341l0 2376 1104 0 0 -2376c0,-419 -67,-686 -229,-932 -212,-323 -602,-508 -1065,-508 -848,0 -1395,553 -1395,1401l0 2415zm5344 -2270l-608 0c-234,0 -312,-51 -312,-196 0,-133 83,-189 284,-189l709 0 0 -1066 -965 0c-737,0 -1166,408 -1166,1122l0 1461c0,368 117,653 346,853 240,212 479,285 915,285l870 0 0 -1066 -748 0c-184,0 -189,0 -240,-27 -44,-34 -78,-90 -78,-157 0,-61 28,-117 67,-150 50,-34 62,-39 201,-39l725 0 0 -831z"/>
    </clipPath>
 </defs>
 <g id="Camada_x0020_1">
  <metadata id="CorelCorpID_0Corel-Layer"/>
  <g id="_751774624">
   <path class="fil0" d="M18393 1754c-673,180 -1298,636 -1547,1111 -500,952 -170,1360 -18,2240 -748,-470 -1078,-1227 -526,-2376 510,-1059 828,-1674 185,-2729 484,30 921,280 1200,543 303,286 551,622 706,1211z"/>
   <path class="fil0" d="M18486 3716c0,0 -306,-658 -486,-947 615,463 549,1522 223,1219l-854 1139 -400 140 -109 -158c-298,-283 -439,-1209 -331,-1744 266,-1317 1447,-1340 2231,-1829 655,-409 780,-825 962,-1043 250,606 473,2075 420,2841 -63,917 -344,1680 -1148,2034 -379,167 -896,216 -1337,179 -264,-22 -388,-81 -669,-48 -998,117 -2292,138 -3103,-498 1141,199 1877,702 3438,155 829,-290 1837,-1241 2061,-2040 -203,500 -1896,1927 -2024,2027l1199 -1529 -73 102z"/>
   <path class="fil0" d="M17767 2431c-472,0 -856,435 -856,971 0,537 384,972 856,972 473,0 856,-435 856,-972 0,-536 -383,-971 -856,-971z"/>
   <path class="fil0" d="M17507 3379c-331,0 -599,304 -599,679 0,375 268,679 599,679 330,0 598,-304 598,-679 0,-375 -268,-679 -598,-679z"/>
   <path class="fil1" d="M17159 5024c34,10 69,15 104,15 167,0 320,-110 391,-282"/>
   <path class="fil0" d="M17332 4051c-247,0 -447,227 -447,507 0,280 200,507 447,507 246,0 446,-227 446,-507 0,-280 -200,-507 -446,-507z"/>
  </g>
  <polygon class="fil0 str0" style="mask:url(#id0)" points="20095,5989 4,5989 4,6560 20095,6560 "/>
  <path class="fil2" d="M1976 1732c-150,-56 -290,-79 -452,-79 -697,0 -1266,586 -1266,1306 0,279 84,563 246,859 156,268 156,273 156,357 0,162 -145,290 -329,290 -101,0 -168,-22 -290,-101l0 1071c189,95 334,129 530,129 753,0 1327,-569 1327,-1317 0,-251 -61,-457 -228,-747 -173,-301 -185,-324 -185,-435 0,-168 140,-313 302,-313 55,0 94,12 189,39l0 -1059zm1663 16l-1105 0 0 3721 1105 0 0 -3721zm2320 1640l0 843 268 0c117,0 162,27 162,111 0,95 -90,145 -263,145 -507,0 -836,-340 -836,-859 0,-513 362,-876 881,-876 167,0 279,28 480,123l0 -1110c-246,-84 -413,-112 -636,-112 -1049,0 -1858,843 -1858,1936 0,1093 804,1975 1808,1975 786,0 1389,-558 1389,-1283 0,-324 -106,-603 -341,-893l-1054 0zm3821 -189l-608 0c-234,0 -312,-51 -312,-196 0,-133 83,-189 284,-189l709 0 0 -1066 -965 0c-737,0 -1166,408 -1166,1122l0 1461c0,368 117,653 346,853 239,212 479,285 914,285l871 0 0 -1066 -748 0c-184,0 -190,0 -240,-27 -44,-34 -78,-90 -78,-157 0,-61 28,-117 67,-150 50,-34 61,-39 201,-39l725 0 0 -831zm630 2270l1105 0 0 -2376c0,-235 78,-341 245,-341 162,0 235,106 235,341l0 2376 1104 0 0 -2376c0,-419 -67,-686 -229,-932 -212,-323 -602,-508 -1065,-508 -848,0 -1395,553 -1395,1401l0 2415zm5344 -2270l-608 0c-234,0 -312,-51 -312,-196 0,-133 83,-189 284,-189l709 0 0 -1066 -965 0c-737,0 -1166,408 -1166,1122l0 1461c0,368 117,653 346,853 240,212 479,285 915,285l870 0 0 -1066 -748 0c-184,0 -189,0 -240,-27 -44,-34 -78,-90 -78,-157 0,-61 28,-117 67,-150 50,-34 62,-39 201,-39l725 0 0 -831z"/>
  <g style="clip-path:url(#id2)">
   <g id="_751775648">
   </g>
   <g style="clip-path:url(#id3)">
    <image id="_3cicuit.png" x="27" y="-358" width="18774" height="6162" xlink:href="LGO SIGENE_Images\LGO SIGENE_ImgID1.png"/>
   </g>
   <g style="clip-path:url(#id4)">
   </g>
  </g>
  <path class="fil3" d="M1976 1732c-150,-56 -290,-79 -452,-79 -697,0 -1266,586 -1266,1306 0,279 84,563 246,859 156,268 156,273 156,357 0,162 -145,290 -329,290 -101,0 -168,-22 -290,-101l0 1071c189,95 334,129 530,129 753,0 1327,-569 1327,-1317 0,-251 -61,-457 -228,-747 -173,-301 -185,-324 -185,-435 0,-168 140,-313 302,-313 55,0 94,12 189,39l0 -1059zm1663 16l-1105 0 0 3721 1105 0 0 -3721zm2320 1640l0 843 268 0c117,0 162,27 162,111 0,95 -90,145 -263,145 -507,0 -836,-340 -836,-859 0,-513 362,-876 881,-876 167,0 279,28 480,123l0 -1110c-246,-84 -413,-112 -636,-112 -1049,0 -1858,843 -1858,1936 0,1093 804,1975 1808,1975 786,0 1389,-558 1389,-1283 0,-324 -106,-603 -341,-893l-1054 0zm3821 -189l-608 0c-234,0 -312,-51 -312,-196 0,-133 83,-189 284,-189l709 0 0 -1066 -965 0c-737,0 -1166,408 -1166,1122l0 1461c0,368 117,653 346,853 239,212 479,285 914,285l871 0 0 -1066 -748 0c-184,0 -190,0 -240,-27 -44,-34 -78,-90 -78,-157 0,-61 28,-117 67,-150 50,-34 61,-39 201,-39l725 0 0 -831zm630 2270l1105 0 0 -2376c0,-235 78,-341 245,-341 162,0 235,106 235,341l0 2376 1104 0 0 -2376c0,-419 -67,-686 -229,-932 -212,-323 -602,-508 -1065,-508 -848,0 -1395,553 -1395,1401l0 2415zm5344 -2270l-608 0c-234,0 -312,-51 -312,-196 0,-133 83,-189 284,-189l709 0 0 -1066 -965 0c-737,0 -1166,408 -1166,1122l0 1461c0,368 117,653 346,853 240,212 479,285 915,285l870 0 0 -1066 -748 0c-184,0 -189,0 -240,-27 -44,-34 -78,-90 -78,-157 0,-61 28,-117 67,-150 50,-34 62,-39 201,-39l725 0 0 -831z"/>
 </g>
</svg>
