<?xml version="1.0" encoding="UTF-8"?>
<!DOCTYPE svg PUBLIC "-//W3C//DTD SVG 1.1//EN" "http://www.w3.org/Graphics/SVG/1.1/DTD/svg11.dtd">
<!-- Creator: CorelDRAW X8 -->
<svg xmlns="http://www.w3.org/2000/svg" xml:space="preserve" width="199.402mm" height="175.985mm" version="1.1" style="shape-rendering:geometricPrecision; text-rendering:geometricPrecision; image-rendering:optimizeQuality; fill-rule:evenodd; clip-rule:evenodd"
viewBox="0 0 19967 17622"
 xmlns:xlink="http://www.w3.org/1999/xlink">
 <defs>
  <style type="text/css">
   <![CDATA[
    .fil0 {fill:#FEFEFE}
   ]]>
  </style>
 </defs>
 <g id="Camada_x0020_1">
  <metadata id="CorelCorpID_0Corel-Layer"/>
  <g id="_751756992">
   <path class="fil0" d="M2653 379l0 16864c-3032,0 -2274,0 -2274,-9474 0,-7201 -758,-7390 2274,-7390zm7579 8527c0,-758 0,-190 190,-379l189 189c568,379 758,758 1326,1327l-1705 379 0 -1516zm-379 -948l0 2464c-1326,189 -4169,-379 -4926,189 757,379 6252,190 7389,-189 379,-190 1137,-948 1516,-1327 190,1516 0,6253 0,8148l-10800 0 -379 -16864 10990 0c189,3979 1137,2842 -3790,7579zm2463 1895l-758 -758 4738 -4737c568,-568 947,-1137 1515,-1705 190,189 190,0 379,379 379,189 190,189 379,379 -379,568 -5874,6253 -6253,6442zm-947 -1137l-947 -758 4547 -4926c758,-569 1137,-948 1705,-1516l758 758c-379,568 -758,1137 -1326,1705 -947,569 -1137,948 -1705,1516l-3032 3221zm5684 -7579l758 -758c569,189 2843,1326 1137,2653 -568,-379 -1516,-1327 -1895,-1895zm-17053 -379l0 16106 758 758 13453 0 0 -9095 5685 -5874c189,-948 0,-1137 -569,-1706 -379,-379 -758,-568 -1137,-947l-568 0c-758,758 -948,947 -1705,1705 -569,569 -1327,1137 -1706,1706l0 -3411 -13453 0 -758 758z"/>
   <path class="fil0" d="M4927 14211c568,190 6252,190 7389,0 -189,-189 190,-189 -758,-189l190 0c-2084,0 -3979,0 -6064,0 -947,0 -568,0 -757,189z"/>
   <path class="fil0" d="M4927 3411c189,189 -190,189 757,189 948,0 2843,379 3601,-189 -569,-379 -4169,-190 -4358,0z"/>
   <path class="fil0" d="M4927 7011c757,379 3221,189 4168,189l0 -379c-947,0 -3411,-189 -4168,190z"/>
   <path class="fil0" d="M1137 2842c568,-189 379,-189 758,0 -190,569 -190,569 -569,379l-189 -379zm-190 -379c-379,948 -189,1327 948,1327 189,-379 0,-190 379,-569 0,-947 -569,-1326 -1327,-758z"/>
   <path class="fil0" d="M1326 12127c-189,-379 -189,0 -189,-758l568 189c190,379 190,379 -379,569zm-379 -947c-379,947 -379,1136 569,1326 568,-190 379,-190 758,-379 0,-1137 -569,-1516 -1327,-947z"/>
   <path class="fil0" d="M1895 14780c-379,189 -190,189 -758,0l189 -379c379,-190 379,-190 569,379zm-948 379c1327,379 1706,-379 948,-1327 -1137,0 -1327,379 -948,1327z"/>
   <path class="fil0" d="M1705 6063c-189,190 190,190 -568,190 0,-758 0,-379 189,-758 379,190 569,190 379,568zm-758 379c948,379 1327,190 1327,-947 -948,-758 -1706,-379 -1327,947z"/>
   <path class="fil0" d="M1895 8716c-379,758 -569,569 -758,0 379,-379 0,-568 758,0zm-948 758l1137 0c190,-758 190,-568 0,-1326l-1137 0c-189,568 -189,758 0,1326z"/>
  </g>
 </g>
</svg>
