<?xml version="1.0" encoding="UTF-8"?>
<!DOCTYPE svg PUBLIC "-//W3C//DTD SVG 1.1//EN" "http://www.w3.org/Graphics/SVG/1.1/DTD/svg11.dtd">
<!-- Creator: CorelDRAW X8 -->
<svg xmlns="http://www.w3.org/2000/svg" xml:space="preserve" width="183.098mm" height="154.326mm" version="1.1" style="shape-rendering:geometricPrecision; text-rendering:geometricPrecision; image-rendering:optimizeQuality; fill-rule:evenodd; clip-rule:evenodd"
viewBox="0 0 17999 15170"
 xmlns:xlink="http://www.w3.org/1999/xlink">
 <defs>
  <style type="text/css">
   <![CDATA[
    .fil0 {fill:#FEFEFE}
   ]]>
  </style>
 </defs>
 <g id="Camada_x0020_1">
  <metadata id="CorelCorpID_0Corel-Layer"/>
  <g id="_751772832">
   <path class="fil0" d="M8799 5752c343,-86 171,-86 85,-172l-85 172z"/>
   <polygon class="fil0" points="7513,8752 7427,8666 7341,8838 "/>
   <path class="fil0" d="M16970 14142l-257 0 0 257 -15427 0 0 -257 -515 0 0 -10285 258 0 0 -257 3599 0 0 -257 257 0 0 -257 258 0 0 -1543 257 0 0 -514 514 0 0 -258 6171 0 0 258 514 0 0 514 257 0 0 1543 257 0 0 514 3857 0 0 257 257 0 0 10028 -257 0 0 257zm-16970 -10285l0 10285 257 0 0 514 514 0 0 257 258 0 0 257 15684 0 0 -257 514 0 0 -257 258 0 0 -257 257 0 0 -257 257 0 0 -10285 -257 0 0 -514 -257 0 0 -257 -258 0 0 -258 -3599 0 0 -1285 -257 0 0 -514 -258 0 0 -515 -514 0 0 -257 -257 0 0 -257 -6685 0 0 257 -514 0 0 257 -258 0 0 257 -257 0 0 515 -257 0 0 1542 -3600 0 0 258 -257 0 0 257 -257 0 0 514 -257 0z"/>
   <path class="fil0" d="M9514 6942l-257 0 0 1286 257 0 0 257 257 0 0 257 771 0 0 257 514 0 0 258 258 0 0 1542 -258 0 0 257 -257 0 0 258 -257 0 0 257 -1028 0 0 257 -257 0 0 771 -515 0 0 -771 -257 0 0 -257 -771 0 0 -257 -514 0 0 -258 -258 0 0 -257 -257 0 0 -257 257 0 0 -257 258 0 0 257 257 0 0 257 514 0 0 257 771 0 0 -1799 -257 0 0 -258 -514 0 0 -257 -514 0 0 -257 -515 0 0 -514 -257 0 0 -1029 257 0 0 -257 258 0 0 -257 257 0 0 -257 771 0 0 -257 514 0 0 -771 515 0 0 771 257 0 0 257 771 0 0 257 514 0 0 514 -771 0 0 -257 -514 0 0 257zm-2057 2572l514 0 0 514 -257 0 0 -257 -1286 0 0 257 -257 0 0 257 -257 0 0 771 257 0 0 258 257 0 0 257 257 0 0 257 257 0 0 257 515 0 0 257 514 0 0 514 257 0 0 257 257 0 0 258 1029 0 0 -258 514 0 0 -771 514 0 0 -257 514 0 0 -257 258 0 0 -257 257 0 0 -257 257 0 0 -515 257 0 0 -1542 -257 0 0 -515 -257 0 0 -257 -257 0 0 -257 -515 0 0 -257 -771 0 0 -257 771 0 0 -257 515 0 0 -257 257 0 0 -1029 -257 0 0 -257 -258 0 0 -257 -514 0 0 -257 -514 0 0 -772 -257 0 0 -257 -1543 0 0 257 -257 0 0 772 -514 0 0 257 -515 0 0 257 -257 0 0 257 -257 0 0 257 -257 0 0 2057 257 0 0 514 514 0 0 258 515 0 0 257z"/>
   <path class="fil0" d="M6428 2057l5143 0 0 771 -5143 0 0 -771zm-514 1286l6171 0 0 -1800 -6171 0 0 1800z"/>
   <polygon class="fil0" points="9514,10799 9771,10799 9771,10542 10028,10542 10028,9514 9514,9514 "/>
   <polygon class="fil0" points="8228,7200 7971,7200 7971,7971 8485,7971 8485,6942 8228,6942 "/>
  </g>
 </g>
</svg>
