<?xml version="1.0" encoding="UTF-8"?>
<!DOCTYPE svg PUBLIC "-//W3C//DTD SVG 1.1//EN" "http://www.w3.org/Graphics/SVG/1.1/DTD/svg11.dtd">
<!-- Creator: CorelDRAW X8 -->
<svg xmlns="http://www.w3.org/2000/svg" xml:space="preserve" width="181.477mm" height="204.815mm" version="1.1" style="shape-rendering:geometricPrecision; text-rendering:geometricPrecision; image-rendering:optimizeQuality; fill-rule:evenodd; clip-rule:evenodd"
viewBox="0 0 16982 19166"
 xmlns:xlink="http://www.w3.org/1999/xlink">
 <defs>
  <style type="text/css">
   <![CDATA[
    .fil0 {fill:#FEFEFE}
   ]]>
  </style>
 </defs>
 <g id="Camada_x0020_1">
  <metadata id="CorelCorpID_0Corel-Layer"/>
  <g id="_751753280">
   <path class="fil0" d="M0 17080l0 2086 16949 0c131,-1174 -130,-4433 -782,-5085 -522,-652 -3520,-1174 -4563,-1304 -261,913 -522,2086 -1174,2608 -1825,0 -782,-2869 -1825,-3651 -522,130 -522,130 -652,652 -130,913 -130,3129 -1304,2999 -782,-131 -912,-1826 -1304,-2738 -1173,521 -2737,521 -3911,912 -782,391 -782,391 -1043,1434 -130,652 -130,1565 -391,2087z"/>
   <path class="fil0" d="M9518 0l-1826 0c-1043,522 -1825,391 -2868,1825 -2738,3781 2347,13168 6519,7562 1564,-2347 3129,-7562 -1434,-9126l-391 -261z"/>
  </g>
 </g>
</svg>
