<?xml version="1.0" encoding="UTF-8"?>
<!DOCTYPE svg PUBLIC "-//W3C//DTD SVG 1.1//EN" "http://www.w3.org/Graphics/SVG/1.1/DTD/svg11.dtd">
<!-- Creator: CorelDRAW X8 -->
<svg xmlns="http://www.w3.org/2000/svg" xml:space="preserve" width="141.717mm" height="249.109mm" version="1.1" style="shape-rendering:geometricPrecision; text-rendering:geometricPrecision; image-rendering:optimizeQuality; fill-rule:evenodd; clip-rule:evenodd"
viewBox="0 0 14084 24757"
 xmlns:xlink="http://www.w3.org/1999/xlink">
 <defs>
  <style type="text/css">
   <![CDATA[
    .fil0 {fill:#FEFEFE}
   ]]>
  </style>
 </defs>
 <g id="Camada_x0020_1">
  <metadata id="CorelCorpID_0Corel-Layer"/>
  <path class="fil0" d="M8818 17635l-340 170 170 -340 339 -4069 1357 -509c169,1357 339,2374 169,3561 -509,339 -1187,848 -1695,1187zm3052 -5426c508,678 678,1526 1017,2374 -339,339 -1017,1017 -1526,1356l-509 -3391 1018 -339zm-339 -848c169,170 508,170 -170,339l-848 170 -1017 -3392 848 340 1187 2543zm-3392 -3391l848 339 1017 3730 -1017 170 -848 -4239zm-8139 8139l0 2713 170 678c169,339 169,339 339,509 1526,3900 4239,4070 5426,4748l1696 0c1526,-678 4069,-339 5765,-4409 2204,-5087 -1357,-11022 -4070,-14922 -678,-1017 -1356,-1865 -2204,-2882l-1187 -1357c-509,-509 -509,-848 -1187,-1187 848,6783 -509,7122 -3222,12378 -339,509 -678,1187 -848,1866 -339,678 -508,1017 -678,1865z"/>
  <path class="fil0" d="M7390 12950c251,-62 125,-62 63,-125l-63 125z"/>
  <polygon class="fil0" points="6448,15148 6385,15085 6322,15211 "/>
 </g>
</svg>
